<?xml version="1.0" encoding="UTF-8"?>
<svg width="612" height="612" enable-background="new 0 0 612 792" viewBox="0 0 612 792" xmlns="http://www.w3.org/2000/svg">
 <defs>
  <filter id="ac">
   <feGaussianBlur stdDeviation="3.64639"/>
  </filter>
  <filter id="m">
   <feGaussianBlur stdDeviation=".99936"/>
  </filter>
  <filter id="q">
   <feGaussianBlur stdDeviation="5.70508"/>
  </filter>
  <filter id="r">
   <feGaussianBlur stdDeviation="5.40273"/>
  </filter>
  <filter id="s">
   <feGaussianBlur stdDeviation="3.16334"/>
  </filter>
  <filter id="u">
   <feGaussianBlur stdDeviation="1.06514"/>
  </filter>
  <filter id="a">
   <feGaussianBlur stdDeviation="1.64624"/>
  </filter>
  <filter id="z">
   <feGaussianBlur stdDeviation="4.23644"/>
  </filter>
  <filter id="d">
   <feGaussianBlur stdDeviation=".23788"/>
  </filter>
  <filter id="e">
   <feGaussianBlur stdDeviation=".48759"/>
  </filter>
  <filter id="aa">
   <feGaussianBlur stdDeviation="2.03577"/>
  </filter>
  <filter id="ab">
   <feGaussianBlur stdDeviation="3.35196"/>
  </filter>
  <filter id="k">
   <feGaussianBlur stdDeviation="3.49989"/>
  </filter>
  <filter id="l">
   <feGaussianBlur stdDeviation=".95313"/>
  </filter>
  <filter id="ad">
   <feGaussianBlur stdDeviation="4.08098"/>
  </filter>
  <filter id="ae">
   <feGaussianBlur stdDeviation=".86925"/>
  </filter>
  <filter id="af">
   <feGaussianBlur stdDeviation="1.08656"/>
  </filter>
  <filter id="n" x="-.05026" y="-.12196" width="1.1005" height="1.2439">
   <feGaussianBlur stdDeviation="2.81236"/>
  </filter>
  <filter id="o" x="-.04543" y="-.17339" width="1.0909" height="1.3468">
   <feGaussianBlur stdDeviation="3.6189"/>
  </filter>
  <filter id="p" x="-.04199" y="-.25235" width="1.084" height="1.5047">
   <feGaussianBlur stdDeviation="3.3436"/>
  </filter>
  <filter id="t" x="-.04157" y="-.10637" width="1.0831" height="1.2127">
   <feGaussianBlur stdDeviation=".75698"/>
  </filter>
  <filter id="v" x="-.04527" y="-.1758" width="1.0905" height="1.3516">
   <feGaussianBlur stdDeviation="4.26081"/>
  </filter>
  <filter id="w" x="-.04276" y="-.22786" width="1.0855" height="1.4557">
   <feGaussianBlur stdDeviation="3.55007"/>
  </filter>
  <filter id="b" x="-.05306" y="-.11196" width="1.1061" height="1.2239">
   <feGaussianBlur stdDeviation="1.04158"/>
  </filter>
  <filter id="c" x="-.05456" y="-.10582" width="1.1091" height="1.2116">
   <feGaussianBlur stdDeviation="1.24811"/>
  </filter>
  <filter id="x" x="-.048" y="-.144" width="1.096" height="1.288">
   <feGaussianBlur stdDeviation="2.74092"/>
  </filter>
  <filter id="y" x="-.10395" y="-.05507" width="1.2079" height="1.1101">
   <feGaussianBlur stdDeviation="2.16451"/>
  </filter>
  <filter id="f" x="-.0473" y="-.15073" width="1.0946" height="1.3015">
   <feGaussianBlur stdDeviation=".90517"/>
  </filter>
  <filter id="g" x="-.04473" y="-.1845" width="1.0894" height="1.369">
   <feGaussianBlur stdDeviation=".28201"/>
  </filter>
  <filter id="h" x="-.04215" y="-.24686" width="1.0843" height="1.4937">
   <feGaussianBlur stdDeviation=".33016"/>
  </filter>
  <filter id="i" x="-.04145" y="-.2736" width="1.0829" height="1.5472">
   <feGaussianBlur stdDeviation=".26137"/>
  </filter>
  <filter id="j" x="-.04789" y="-.14496" width="1.0958" height="1.2899">
   <feGaussianBlur stdDeviation="1.06154"/>
  </filter>
 </defs>
 <g transform="matrix(.81345 0 0 .92686 13.773 -2.8414)">
  <g transform="translate(189.53 39.337)">
   <g transform="matrix(.45428 0 0 .45428 137.14 178.42)">
    <g transform="translate(0 1.788)">
     <g transform="matrix(.81354 0 0 .90331 -1099.3 -70.823)">
      <path d="m1467.5 755h41.927c4.545 0 8.229 3.684 8.229 8.229v19.006c0 4.545-3.684 8.229-8.229 8.229h-41.927c-4.545 0-8.23-3.684-8.23-8.229v-19.006c0-4.544 3.685-8.229 8.23-8.229z" fill="#1a1a1a"/>
      <path d="m1473.1 746.35s0.891 2.982 2.595 3.892c0.187 11.181 0 41.952 0 41.952l-1.297 10.38 41.086-0.432 6.055-4.757 3.893-6.488v-36.329l-5.623-5.19-6.92-3.459-39.789 0.431z" fill="#800000"/>
     </g>
    </g>
    <g transform="translate(-.24936,.74808)" stroke-width=".99998">
     <path d="m102.9 608.54-1.5164-3.3675h29.192l6.0658 3.3675h-33.742z" fill="#ccc" stroke="#ccc"/>
     <path d="m103.27 613.59v4.6295l36.016 0.42185v-5.0522h-36.016v9.1e-4z" fill="#b3b3b3" stroke="#7d0000"/>
     <path d="m103.65 624.53v7.156l35.258-0.42094v-7.156l-35.258 0.42094z" fill="#690000" stroke="#690000"/>
     <path d="m103.65 637.84v4.3738l35.258-0.25744v-4.3729l-35.258 0.25654z" fill="#500" stroke="#500"/>
     <path d="m102.52 646.68v4.3738l31.466-0.25744 4.1702-4.7939-35.636 0.67749z" fill="#410000" stroke="#410000"/>
    </g>
   </g>
  </g>
  <path d="m148.84 307.11c1.9381-46.156 28.49-73.96 64.226-95.618 15.112-9.1587 43.445-19.391 81.788-20.044 97.578 7.0808 139.65 58.513 151.59 115.27" fill="none" opacity=".75" stroke="#ccc" stroke-width="4.1513"/>
  <path d="m349.61 536.08s0.97776 8.5484 2.8721 13.961 5.1384 11.993 10.872 21.434c5.6829 9.3566 25.976 31.036 32.412 36.772s6.7695 4.7192 6.7695 4.7192 28.069 6.102 20.719-0.19614c-7.4637-6.3963-14.8-12.81-21.744-19.861s-19.068-19.999-24.206-27.333-11.48-17.541-11.898-22.81c2.9489-2.0954-1.436-6.6855-1.436-6.6855h-14.36z" fill="#fff" stroke="#fff" stroke-width=".48839"/>
  <g transform="matrix(.52314 0 0 .49282 -326.56 177.37)" filter="url(#z)">
   <path d="m1312 752.27c-7.255 5.646 8.196 32.595 17.303 44.344 10.727 13.838 27.14 35.073 39.092 48.256 9.221 10.169 20.474 19.467 28.197 27.388 4.455 4.568 21.156 16.085 22.43 9.782 1.551-7.671-14.144-12.525-19.866-18.259-8.239-8.255-21.729-20.613-29.479-29.345-9.587-10.805-21.853-28.389-30.761-39.779-10.633-13.595-19.251-48.353-26.916-42.387z" fill="#fff"/>
  </g>
  <path d="m165.35 269.1c6.0627-2.5873 6.488-4.4422 6.488-4.4422s12.801-19.709 30.587-35.094c18.014-15.584 46.15-23.559 68.591-27.208s45.981-1.3746 66.232 4.9414 49.072 21.938 61.197 32.819 23.25 39.814 30.598 46.552c7.8127 8.2957 6.4901 6.0376 6.4901 6.0376l6.4875 14.155 2.3175-0.88854s-4.8767-20.585-10.659-31.541-12.775-23.619-29.66-39.537-36.507-25.27-57.473-31.985-52.184-12.663-77.841-7.607-46.276 9.2018-70.153 27.639-30.212 26.683-36.444 40.383c0.30863 2.7179 0.0821 4.256 3.243 5.7758z" fill="#ccc" stroke="#ccc" stroke-width=".48839"/>
  <path d="m236.65 450.5c-2.4488-1.9984-5.8738-4.22-5.8738-4.22s-12.769-48.569-8.0758-61.886 10.062-17.602 22.025-24.614 35.779-17.144 55.062-14.768 54.019 16.581 63.137 28.13 8.1909 22.332 5.1388 33.053c-3.1075 10.918-1.6442 26.401-5.1388 32.35-3.4951 5.9483-9.5437 9.1422-9.5437 9.1422l5.8734 3.5162 5.7959-10.248 26.059 5.6945 8.523-27.796-2.2024-45.711-22.759-29.537-60.201-21.097-71.948 7.7357-35.974 18.988-15.418 30.943-2.2025 40.086 6.6073 33.053h22.759l1.4685 35.163 11.746-6.3292 7.3418-4.9227s1.5527-9.4877 0-18.285c-1.673-9.4818 0.2464-6.4411-2.2019-8.4395z" fill="#fff" stroke="#fff" stroke-width=".48839"/>
  <path d="m183.36 387.53s-1.2676 3.0377-6.6931-1.5268-16.1-28.022-14.661-36.941 1.2796-8.8549 13.386-16.181 43.88-13.079 72.03-15.876 89.224-1.0965 114.74 2.1368 44.581 6.9906 55.138 13.128 13.93 9.7311 16.892 18.318 2.3829 28.162-3.1875 35.72-19.706 10.708-24.541 10.686-4.781-2.1373-4.781-2.1373l-1.9121-17.707s-9.2843-21.55-17.53-29.614-24.482-16.757-36.971-21.066-30.826-6.2913-44.939-6.7166-35.438 1.2375-48.445 4.2742-28.982 8.7593-37.609 14.654-15.044 14.246-19.76 21.676-11.155 27.171-11.155 27.171z" fill="#fff" stroke="#fff" stroke-width=".48839"/>
  <g transform="matrix(.52314 0 0 .49282 -326.56 177.37)" filter="url(#aa)">
   <path d="m969.35 295.17s0.985-54.429 11.033-80.029 31.737-56.742 58.843-83.769c26.736-26.657 100.56-49.143 112.54-51.608 11.267-2.319 22.323-18.708 28.686-20.942s9.155-0.787 14.711 1.496 13.617 11.803 27.95 17.203c16.264 6.127 38.648 7.49 62.521 18.698s65.301 38.426 84.587 59.835 40.128 59.211 46.351 81.99-1.482 63.857-1.482 63.857l-233.17-30.665-212.57 23.934z" fill="#fff"/>
   <path d="m969.35 295.17s0.985-54.429 11.033-80.029 31.737-56.742 58.843-83.769c26.736-26.657 100.56-49.143 112.54-51.608 11.267-2.319 22.323-18.708 28.686-20.942s9.155-0.787 14.711 1.496 13.617 11.803 27.95 17.203c16.264 6.127 38.648 7.49 62.521 18.698s65.301 38.426 84.587 59.835 40.128 59.211 46.351 81.99-1.482 63.857-1.482 63.857l-233.17-30.665-212.57 23.934z" fill="none" stroke="#fff" stroke-width="1.1094"/>
  </g>
  <path d="m234.13 447.41c2.4698-6.8856 11.908-22.286 20.259-28.775 7.6745-5.9636 15.008-15.535 18.164-25.429 3.0892-9.6878 16.273-11.738 24.45-11.376s16.608 7.062 21.656 16.06 5.0682 12.809 13.273 18.737c8.205 5.9276 14.438 26.002 19.56 30.113s6.986 2.6765 6.986 2.6765l-2.0957 10.038s-24.733-21.428-75.447-22.083c-0.4159 17.413-1.5767 19.865-1.5767 19.865s-37.622 10.693-41.735 20.955c-2.0178-8.4764 5.9131-19.213-3.4936-30.782z" fill="#fff" stroke="#fff" stroke-width=".48839"/>
  <path d="m195.71 444.06c-3.4093-13.291-7.3392-35.016-4.1914-50.188s9.6499-36.314 27.244-48.85 60.237-19.142 86.624-16.729 66.507 10.904 81.733 32.12 5.5333 70.575 1.0855 81.705c0.44258-8.9451-14.397-1.8628-20.646-0.0655s-10.479 17.398-10.479 17.398-22.384-12.804-34.23-16.324-41.703-6.103-41.703-6.103-0.66961 11.411-0.53256 20.392c-11.713 2.9017-28.273 9.6183-36.225 15.208s-10.591 7.6332-18.204 12.235c-0.70729-4.6906-1.1567-0.1094-1.1373-8.6785 0.0192-8.5967-1.831-29.994-8.3828-34.797s-9.1645-0.76288-20.957 2.6765z" fill="#fff" opacity=".5" stroke="#fff" stroke-width=".48839"/>
  <g transform="matrix(.44979 0 0 .43086 -291.2 168.47)" fill="#fff" filter="url(#ad)" stroke="#fff" stroke-width="6.6565">
   <path d="m1132.7 296.68s15.924-52.414 29.942-74.427 32.309-46.161 59.884-69.295c28.08-23.557 51.626-43.281 82.127-38.496 29.665 4.653 68.919 38.758 88.971 57.317s32.196 36.047 42.774 58.173 21.387 67.583 21.387 67.583"/>
   <path d="m1253.3 128.15s17.428-11.589 30.835-22.197c8.697-6.881 12.527-14.27 17.928-14.589s8.123 7.985 16.284 16.224c10.31 10.408 29.056 26.55 29.056 26.55"/>
  </g>
  <path d="m390.93 444.44 1.5658 11.735s8.7747-21.714 10.062-35.339c1.2869-13.625 3.1389-40.979-4.7915-56.451s-21.332-27.039-39.288-35.798-49.774-16.015-72.347-14.686-63.372 14.434-78.576 27.078-21.338 24.97-24.435 41.765c-3.0965 16.795 2.8104 57.004 6.1376 63.998 7.834-1.7224 6.3196-2.9579 6.3196-2.9579-0.17318 0.33166-7.9685-32.909-2.8747-56.91 5.0772-23.922 6.2667-24.539 16.804-37.241 10.726-12.01 55.352-20.381 76.624-21.964s45.837 3.7464 62.286 9.1792c16.307 5.3855 39.694 15.821 43.6 34.88 3.8158 18.617 4.815 37.467 3.8326 48.649s-4.9197 24.063-4.9197 24.063z" fill="#fff" stroke="#fff" stroke-width=".48839"/>
  <g transform="matrix(.44979 0 0 .43086 -291.2 168.47)">
   <path d="m1052.7 504.03s1.114 7.155-8.787-2.451-26.01-59.766-25.565-76.694 5.855-22.854 11.717-29.825 1.976-6.061 24.5-14.913 93.398-19.213 129.95-26.63c36.749-7.456 166.16-5.281 216.24-2.13s89.186 8.198 117.17 15.978c27.985 7.779 57.206 19.12 69.237 29.825 12.032 10.705 12.671 15.345 15.979 27.695s3.106 40.938 0 53.26-8.395 21.066-14.913 27.695-22.369 14.913-26.629 14.913-16.03-0.373-16.03-0.373l-0.534 23.807 30.41-3.196c20.23 2.595 31.924-9.055 44.739-23.434 5.608-6.926 10.495-15.686 13.848-29.826s4.837-45.532 0-62.846-11.372-31.289-25.565-43.673c-14.193-12.385-35.094-18.484-69.238-28.76s-83.304-22.415-159.78-26.63-73.411-5.114-103.32-4.261-61.046 0.159-95.867 5.326-110.04 20.23-135.28 29.825-26.471 12.306-36.217 20.239-26.304 19.383-27.696 31.956c-1.399 12.645 2.485 12.2 7.457 28.76s21.407 66.427 33.021 78.824 13.007 10.433 20.238 12.783 11.555 3.461 11.555 3.461l-0.638-28.705z" fill="#fff" stroke="#fff" stroke-width="1.1094"/>
   <g filter="url(#ab)">
    <path d="m1629.8 414.23s-48.479-30.332-71.368-39.412-48.75-17.715-79.89-23.434-99.218-11.891-136.34-13.848-81.706-0.466-118.24 2.131-92.667 13.436-119.3 18.108-44.925 10.979-51.13 10.652c-5.142-0.27-6.142-7.837 1.065-12.782 7.668-5.262 130.82-24.373 175.76-27.695s84.732-1.277 122.5 1.065 97.423 8.983 128.89 14.913 62.679 14.739 80.955 21.304 31.368 11.482 41.544 19.174c10.174 7.69 25.563 29.824 25.563 29.824z" fill="#fff"/>
    <path d="m1629.8 414.23s-48.479-30.332-71.368-39.412-48.75-17.715-79.89-23.434-99.218-11.891-136.34-13.848-81.706-0.466-118.24 2.131-92.667 13.436-119.3 18.108-44.925 10.979-51.13 10.652c-5.142-0.27-6.142-7.837 1.065-12.782 7.668-5.262 130.82-24.373 175.76-27.695s84.732-1.277 122.5 1.065 97.423 8.983 128.89 14.913 62.679 14.739 80.955 21.304 31.368 11.482 41.544 19.174c10.174 7.69 25.563 29.824 25.563 29.824z" fill="none" stroke="#fff" stroke-width="1.1094"/>
   </g>
  </g>
  <path d="m152.49 312.41s3.4088-18.48 5.6516-25.039 9.3015-19.176 9.3015-19.176-3.3936 1.7372-4.4357-0.72887c-0.99761-2.3621 3.1682-11.418 3.1682-11.418s-11.562 16.992-12.672 28.059c-1.0986 10.947-2.6613 28.545-2.6613 28.545l1.6479-0.24247z" fill="#fff" stroke="#fff" stroke-width=".48839"/>
  <path d="m150.84 336.32-1.0965 5.4762 4.4823 0.16263 2.6481-5.212-6.0339-0.42678z" fill="#fff" stroke="#fff" stroke-width=".48839"/>
  <path d="m150.98 331.74-10.008 2.7578s-0.34476 1.199-1.3717 2.5641c-1.0813 1.4376-6.4195 0.0266-6.4195 0.0266-0.35052-2.7105-0.11874-8.8244 0.01-9.0038 0.12766-0.90481-1.4972 0.91023-2.4593-0.1715s-1.0322-2.1206 0.16059-3.1713 1.073 0.52731 2.3175-0.57167c0.18417-1.9703-0.45305-7.6056 1.2388-9.0037 1.8426-0.52682 6.8182 0.45289 6.8182 0.45289-1.197-1.0211 0.76797 1.3479 1.3717 3.2368l10.196 0.88855-1.8535 11.995z" fill="#fff" stroke="#fff" stroke-width=".48839"/>
  <path d="m175.55 323.61-22.718-5.6388-1.8535 18.213 6.0245 0.44403 18.546-13.019z" fill="#fff" stroke="#fff" stroke-width=".48839"/>
  <path d="m142.32 346.7 3.1017-37.171 3.5469-10.301-1.0599 9.8741 6.1485-2.1595-1.2022 8.7219s-5.1158 1.4164-4.6528 3.6375-1.9869 27.142-1.9869 27.142l-3.8954 0.25528z" fill="#fff" stroke="#fff" stroke-width=".48839"/>
  <path d="m444.23 333.5 1.097 5.4757-6.5498 0.65791-3.866-4.2747 9.3188-1.8589z" fill="#fff" stroke="#fff" stroke-width=".48839"/>
  <path d="m445.85 329.2-0.3029 9.7247-1.0594-5.6605-0.6058-4.0642h1.9681z" fill="#fff" stroke="#fff" stroke-width=".48839"/>
  <path d="m444.09 328.92 10.007 2.7578s0.34475 1.199 1.3722 2.5646c1.0808 1.4375 6.4195 0.0261 6.4195 0.0261 0.34998-2.7105 0.11823-8.8239-9e-3 -9.0032-0.12764-0.90481 1.4967 0.91023 2.4593-0.1715s1.0316-2.1206-0.16113-3.1713-1.073 0.52731-2.317-0.57167c-0.18467-1.9703 0.45252-7.6056-1.2388-9.0038-1.843-0.52682-6.8187 0.4529-6.8187 0.4529 1.1975-1.0211-0.76798 1.3483-1.3717 3.2373l-10.196 0.88854 1.854 11.994z" fill="#fff" stroke="#fff" stroke-width=".48839"/>
  <path d="m415.65 324.26 3.9252-4.8281 22.667-4.2772 1.854 18.213-9.1242 1.6825-19.322-10.791z" fill="#fff" stroke="#fff" stroke-width=".48839"/>
  <path d="m452.76 343.88-3.1022-37.17-3.5464-10.301 1.0594 9.8746-6.1485-2.1595 1.2022 8.7218s5.1163 1.4164 4.6528 3.6375 1.9869 27.142 1.9869 27.142l3.8958 0.2543z" fill="#fff" stroke="#fff" stroke-width=".48839"/>
  <path d="m461.48714,312.22033h-7.81211c-.3097,0-.56081.23655-.56081.5283v2.28124c0,.29175.25111.5283.56081.5283h7.81211c.3097,0 .56081-.23655.56081-.5283v-2.28124c0-.29175-.25111-.5283-.56081-.5283z" fill="#fff" stroke="#fff" stroke-linecap="round" stroke-linejoin="round" stroke-width=".48839"/>
  <path d="m461.81411,331.52442h-6.95154c-.2961,0-.53675.2262-.53675.50514v2.18219c0,.27942.24065.50562.53675.50562h6.95154c.29609,0 .53674-.2262.53674-.50562v-2.18219c0-.27894-.24065-.50514-.53674-.50514z" fill="#fff" stroke="#fff" stroke-linecap="round" stroke-linejoin="round" stroke-width=".48839"/>
  <path d="m464.21795,321.21915h-8.73022c-.39079,0-.7073.29815-.7073.66629v2.87656c0,.36813.31598.66629.7073.66629h8.73022c.39079,0 .70729-.29816.70729-.66629v-2.87656c-.00052-.36814-.3165-.66629-.70729-.66629z" fill="#fff" stroke="#fff" stroke-linecap="round" stroke-linejoin="round" stroke-width=".48839"/>
  <g transform="matrix(.52314 0 0 .49282 -326.56 177.37)" filter="url(#j)">
   <path d="m1422.4 298.4s0.111-2.488 5.433-8.292c30.122-4.692 39.16-10.656 39.584-2.765 0.257 4.786-29.903 0.055-35.703 5.923-6.955 7.039-9.314 5.134-9.314 5.134z" fill="#fff"/>
  </g>
  <g transform="matrix(.52314 0 0 .49282 -326.56 177.37)" filter="url(#g)">
   <path d="m1493.629,275.895h10.149c.733,0 1.329.605 1.329,1.352v.455c0,.747-.596,1.352-1.329,1.352h-10.149c-.733,0-1.328-.605-1.328-1.352v-.455c0-.747.595-1.352 1.328-1.352z" fill="#fff"/>
  </g>
  <g transform="matrix(.52314 0 0 .49282 -326.56 177.37)" filter="url(#h)">
   <path d="m1496.734,294.849h13.254c.733,0 1.329.605 1.329,1.352v.061c0,.747-.596,1.352-1.329,1.352h-13.254c-.733,0-1.328-.605-1.328-1.352v-.061c0-.746.594-1.352 1.328-1.352z" fill="#fff"/>
  </g>
  <g transform="matrix(.52314 0 0 .49282 -326.56 177.37)" filter="url(#i)">
   <path d="m1494.824,314.199h10.866c.535,0 .97.442.97.987 0,.545-.435.987-.97.987h-10.866c-.536,0-.971-.442-.971-.987 0-.545.435-.987.971-.987z" fill="#fff"/>
  </g>
  <g transform="matrix(.52314 0 0 .49282 -326.56 177.37)" filter="url(#f)">
   <path d="m952.74 299.84-34.999-6.93 0.567-4.621 37.459 9.625z" fill="#fff"/>
   <path d="m952.74 299.84-34.999-6.93 0.567-4.621 37.459 9.625z" fill="none" stroke="#fff" stroke-width="1.1267"/>
  </g>
  <path d="m341.89 529.56 16.132-32.86-33.272-23.195-39.322-8.6982-34.784 7.2488-24.702 24.161-0.50433 7.2488 7.1242 24.677 109.33 1.4178z" fill="#fff" stroke="#fff" stroke-width=".48839"/>
  <path d="m235.44 524.6c1.7065-3.3014 3.2378-10.168 6.8333-14.035s12.364-9.1506 16.074-9.9805c1.1143-0.79294 1.6076-2.6238 3.8331-2.2689 2.2642 0.36075 2.3929 1.5479 4.171 2.5804 7.7347-0.0719 32.531 0.39722 40.996 0.31196 1.1629-0.63771 1.4826-1.8377 4.3044-1.645 3.0316 0.20649 1.4172 1.8959 6.8882 2.4651 3.6055 1.546 8.5644 6.0178 12.249 9.7991 3.6845 3.7809 7.2968 11.46 8.4446 14.346 1.7238 0.85996 2.4986 0.80033 2.6178 2.1689s-1.504 2.2256-2.2924 3.4305c0.0602 5.2909-5.3408 14.125-12.807 19.394s-24.907 8.9387-37.344 9.0033-32.765-5.0528-41.027-10.803-11.074-15.163-13.591-18.529c-0.59532-1.1552-2.3646-2.4828-2.2929-3.8706 0.0795-1.5706 0.65969-1.6445 2.9422-2.367z" fill="#fff" stroke="#fff" stroke-width=".48839"/>
  <path d="m267.65 502.61h38.312c1.944 0 3.5197 1.4849 3.5197 3.3162s-1.5757 3.3162-3.5197 3.3162h-38.312c-1.944 0-3.5203-1.4849-3.5203-3.3162s1.5762-3.3162 3.5203-3.3162z" fill="#fff"/>
  <path d="m268.29 503.53h36.647c0.91809 0 1.662 0.70127 1.662 1.5662s-0.74391 1.5657-1.662 1.5657h-36.647c-0.91815 0-1.6626-0.70079-1.6626-1.5657s0.74443-1.5662 1.6626-1.5662z" fill="#fff"/>
  <path d="m224.4 485.47s12.421-8.8096 21.266-15.507c3.3288-2.5208 6.295-4.0682 8.0972-5.0854 7.7101-4.355 26.693-8.0595 26.693-8.0595s-0.61833 1.473 0 3.6744c0.63145 2.2502-0.28926 1.5282 5.9084 1.5105 6.3755-0.0172 23.731 1.6667 32.059 4.2564s17.723 9.0215 22.593 12.236 12.801 9.5818 12.801 9.5818-0.50903 0.12813-2.361 1.8076c-1.7457 1.5834-1.323 1.9412-0.43159 3.1333 0.83548 1.1162 1.0824 2.2625-0.68739 1.7465-1.8127-0.52879-4.3055 1.8806-6.2756-1.4903-2.0905-3.5769-15.328-14.069-21.241-16.464s-14.023-3.6823-14.023-3.6823l-2.2401-0.90136-39.978-1.234c-9.3031 3.0343-16.439 6.4618-28.355 15.468-9.5197 7.1936-12.595 13.334-11.81 19.771-2.6214-7.9718-7.8487-25.388-2.0146-20.761z" fill="#fff" stroke="#fff" stroke-width=".48839"/>
  <g transform="matrix(.44274 0 0 .4244 -282.22 172.35)" fill="#fff" stroke="#fff" stroke-width="1.1267">
   <path d="m1061.9 647.13s16.142-4.767 24.461-7.56 14.501-11.538 26.401-10.823c12.328 0.741 14.515 3.509 22.501 18.169s11.565 69.18 11.466 88.41c-0.098 19.017 4.876 11.744 0.662 18.865-3.732 6.305-6.493 9.733-6.493 9.733l-41.123 2.163v-6.489h-24.89s0.208-24.83-1.081-50.827c-1.344-27.074-11.904-61.641-11.904-61.641z"/>
   <path d="m1073.8 758.52s-9.042-26.759-14.069-60.559c-5.006-33.659 1.297-49.952 1.297-49.952s14.314 41.902 16.018 58.603-3.246 51.908-3.246 51.908z"/>
   <path d="m1073.8 644.97s32.56 53.077 32.464 77.863c-0.1 26.209-6.493 37.85-6.493 37.85"/>
  </g>
  <path d="m364.9 537.29s3.2372 1.8673 0.51372 5.8739c-2.6853 3.9504-5.5386 2.9495-5.5386 2.9495" fill="#fff" stroke="#fff" stroke-width=".48839"/>
  <path d="m387.36 472.79c1.7196-6.8132 1.3414-24.748-2.9045-25.364-6.5853-0.95508-12.975 12.787-13.875 21.034-0.88725 8.131-2.6916 20.514 3.2268 23.198 4.6015 2.0871 11.52-10.813 13.553-18.868z" fill="#fff" stroke="#fff" stroke-width=".48839"/>
  <path d="m356.38 458.56s2.7737-14.184 8.1135-17.348c6.2584-3.7074 19.715-2.54 25.446 1.8816 1.8247 3.7622 2.4117 3.7996 2.5817 7.4233 0.45726 9.7637-3.8723 16.704-3.8723 16.704s0.64501-18.791-4.5179-20.106c-4.7679-1.2143-11.701 12.659-12.907 19.487-1.3225 7.4878-2.6121 20.649 1.9356 25.673 1.086 1.2-5.4852 0.61849-5.4852 0.61849s-2.1276-6.7033-4.5179-8.3513c-1.5401 3.604-20.652-3.0929-20.652-3.0929l0.96837-25.674 12.907 2.7839z" fill="#fff" stroke="#fff" stroke-width=".48839"/>
  <path d="m388.97 465.36s2.8067-19.762-5.809-21.034c-5.4731-0.80821-11.354 11.912-13.23 18.559-4.0847 18.035 1.9362 29.076 1.9362 29.076" fill="#fff" stroke="#fff" stroke-width=".48839"/>
  <path d="m356.38 459.18s-1.798 8.4045-1.9362 12.064c-0.28302 7.4962 2.5817 12.682 2.5817 12.682" fill="#fff" stroke="#fff" stroke-width=".48839"/>
  <g transform="matrix(.44274 0 0 .4244 -282.22 172.35)">
   <g transform="translate(5.981 -10.352)">
    <path d="m1493.4 690.86c0 2.8177-0.6527 5.1019-1.4577 5.1019s-1.4577-2.2842-1.4577-5.1019 0.6526-5.1019 1.4577-5.1019 1.4577 2.2842 1.4577 5.1019z" fill="#fff" stroke="#fff" stroke-width="1.2136"/>
   </g>
   <g transform="translate(11.732 -28.065)">
    <path d="m1493.4 690.86c0 2.8177-0.6527 5.1019-1.4577 5.1019s-1.4577-2.2842-1.4577-5.1019 0.6526-5.1019 1.4577-5.1019 1.4577 2.2842 1.4577 5.1019z" fill="#fff" stroke="#fff" stroke-width="1.2136"/>
   </g>
   <g transform="translate(14.032 -14.262)">
    <path d="m1493.4 690.86c0 2.8177-0.6527 5.1019-1.4577 5.1019s-1.4577-2.2842-1.4577-5.1019 0.6526-5.1019 1.4577-5.1019 1.4577 2.2842 1.4577 5.1019z" fill="#fff" stroke="#fff" stroke-width="1.2136"/>
   </g>
   <g transform="translate(16.793 2.3004)">
    <path d="m1493.4 690.86c0 2.8177-0.6527 5.1019-1.4577 5.1019s-1.4577-2.2842-1.4577-5.1019 0.6526-5.1019 1.4577-5.1019 1.4577 2.2842 1.4577 5.1019z" fill="#fff" stroke="#fff" stroke-width="1.2136"/>
   </g>
   <g transform="translate(-8.0514 -1.3802)">
    <path d="m1493.4 690.86c0 2.8177-0.6527 5.1019-1.4577 5.1019s-1.4577-2.2842-1.4577-5.1019 0.6526-5.1019 1.4577-5.1019 1.4577 2.2842 1.4577 5.1019z" fill="#fff" stroke="#fff" stroke-width="1.2136"/>
   </g>
   <g transform="translate(.23004 -18.173)">
    <path d="m1493.4 690.86c0 2.8177-0.6527 5.1019-1.4577 5.1019s-1.4577-2.2842-1.4577-5.1019 0.6526-5.1019 1.4577-5.1019 1.4577 2.2842 1.4577 5.1019z" fill="#fff" stroke="#fff" stroke-width="1.2136"/>
   </g>
   <g transform="translate(-3.4506 45.088)">
    <path d="m1493.4 690.86c0 2.8177-0.6527 5.1019-1.4577 5.1019s-1.4577-2.2842-1.4577-5.1019 0.6526-5.1019 1.4577-5.1019 1.4577 2.2842 1.4577 5.1019z" fill="#fff" stroke="#fff" stroke-width="1.2136"/>
   </g>
   <g transform="translate(-3.4506 16.333)">
    <path d="m1493.4 690.86c0 2.8177-0.6527 5.1019-1.4577 5.1019s-1.4577-2.2842-1.4577-5.1019 0.6526-5.1019 1.4577-5.1019 1.4577 2.2842 1.4577 5.1019z" fill="#fff" stroke="#fff" stroke-width="1.2136"/>
   </g>
   <g transform="translate(7.1312 18.173)">
    <path d="m1493.4 690.86c0 2.8177-0.6527 5.1019-1.4577 5.1019s-1.4577-2.2842-1.4577-5.1019 0.6526-5.1019 1.4577-5.1019 1.4577 2.2842 1.4577 5.1019z" fill="#fff" stroke="#fff" stroke-width="1.2136"/>
   </g>
   <g transform="translate(0 2.5304)">
    <path d="m1493.4 690.86c0 2.8177-0.6527 5.1019-1.4577 5.1019s-1.4577-2.2842-1.4577-5.1019 0.6526-5.1019 1.4577-5.1019 1.4577 2.2842 1.4577 5.1019z" fill="#fff" stroke="#fff" stroke-width="1.2136"/>
   </g>
   <g transform="translate(8.7415 4.6008)">
    <path d="m1493.4 690.86c0 2.8177-0.6527 5.1019-1.4577 5.1019s-1.4577-2.2842-1.4577-5.1019 0.6526-5.1019 1.4577-5.1019 1.4577 2.2842 1.4577 5.1019z" fill="#fff" stroke="#fff" stroke-width="1.2136"/>
   </g>
   <g transform="translate(15.873 17.483)">
    <path d="m1493.4 690.86c0 2.8177-0.6527 5.1019-1.4577 5.1019s-1.4577-2.2842-1.4577-5.1019 0.6526-5.1019 1.4577-5.1019 1.4577 2.2842 1.4577 5.1019z" fill="#fff" stroke="#fff" stroke-width="1.2136"/>
   </g>
   <g transform="translate(-14.032 28.065)">
    <path d="m1493.4 690.86c0 2.8177-0.6527 5.1019-1.4577 5.1019s-1.4577-2.2842-1.4577-5.1019 0.6526-5.1019 1.4577-5.1019 1.4577 2.2842 1.4577 5.1019z" fill="#fff" stroke="#fff" stroke-width="1.2136"/>
   </g>
   <g transform="translate(-6.9012 31.055)">
    <path d="m1493.4 690.86c0 2.8177-0.6527 5.1019-1.4577 5.1019s-1.4577-2.2842-1.4577-5.1019 0.6526-5.1019 1.4577-5.1019 1.4577 2.2842 1.4577 5.1019z" fill="#fff" stroke="#fff" stroke-width="1.2136"/>
   </g>
   <g transform="translate(-11.962 13.342)">
    <path d="m1493.4 690.86c0 2.8177-0.6527 5.1019-1.4577 5.1019s-1.4577-2.2842-1.4577-5.1019 0.6526-5.1019 1.4577-5.1019 1.4577 2.2842 1.4577 5.1019z" fill="#fff" stroke="#fff" stroke-width="1.2136"/>
   </g>
   <g transform="translate(2.9905 31.746)">
    <path d="m1493.4 690.86c0 2.8177-0.6527 5.1019-1.4577 5.1019s-1.4577-2.2842-1.4577-5.1019 0.6526-5.1019 1.4577-5.1019 1.4577 2.2842 1.4577 5.1019z" fill="#fff" stroke="#fff" stroke-width="1.2136"/>
   </g>
   <g transform="translate(-6.2111 56.59)">
    <path d="m1493.4 690.86c0 2.8177-0.6527 5.1019-1.4577 5.1019s-1.4577-2.2842-1.4577-5.1019 0.6526-5.1019 1.4577-5.1019 1.4577 2.2842 1.4577 5.1019z" fill="#fff" stroke="#fff" stroke-width="1.2136"/>
   </g>
   <g transform="translate(4.3708 46.468)">
    <path d="m1493.4 690.86c0 2.8177-0.6527 5.1019-1.4577 5.1019s-1.4577-2.2842-1.4577-5.1019 0.6526-5.1019 1.4577-5.1019 1.4577 2.2842 1.4577 5.1019z" fill="#fff" stroke="#fff" stroke-width="1.2136"/>
   </g>
   <g transform="translate(11.732 32.896)">
    <path d="m1493.4 690.86c0 2.8177-0.6527 5.1019-1.4577 5.1019s-1.4577-2.2842-1.4577-5.1019 0.6526-5.1019 1.4577-5.1019 1.4577 2.2842 1.4577 5.1019z" fill="#fff" stroke="#fff" stroke-width="1.2136"/>
   </g>
   <g transform="translate(-9.8917 43.938)">
    <path d="m1493.4 690.86c0 2.8177-0.6527 5.1019-1.4577 5.1019s-1.4577-2.2842-1.4577-5.1019 0.6526-5.1019 1.4577-5.1019 1.4577 2.2842 1.4577 5.1019z" fill="#fff" stroke="#fff" stroke-width="1.2136"/>
   </g>
  </g>
  <path d="m347.25 495.14h4.5938c0.9023 0 1.6337 0.7011 1.6337 1.5656v3.0158c0 0.86492-0.73141 1.566-1.6337 1.566h-4.5938c-0.9023 0-1.6333-0.7011-1.6333-1.566v-3.0158c0-0.86449 0.7314-1.5656 1.6333-1.5656z" fill="#fff"/>
  <path d="m353.4 487.8h11.331c2.0122 0 3.6437 1.5635 3.6437 3.4924v14.629c0 1.9289-1.631 3.4924-3.6437 3.4924h-11.331c-2.0122 0-3.6437-1.5635-3.6437-3.4924v-14.629c0-1.9285 1.631-3.4924 3.6437-3.4924z" fill="#fff"/>
  <path d="m356.79 506.84v-7.337l-2.2757-0.39638 0.41396-1.9832 5.9991 0.19819 0.62072-0.79319h2.0685l0.20676-1.1896 1.4478 0.1982-0.20676-0.59501 3.1032 0.1982-2.4824-2.181-2.4824 0.79319-2.4824 0.1982-0.20676 1.3882-6.6194-0.19819-1.4482 1.5864 0.20676 3.7678 3.3099 0.39638-0.20676 6.1474 1.0342-0.19862z" fill="#fff" stroke="#fff" stroke-width=".4884"/>
  <g transform="matrix(.44274 0 0 .4244 -282.22 172.35)" filter="url(#e)">
   <path d="m1463.868,810.104c0,0-.051,6.031-.085,13.954-.045,10.283-.065,23.755.085,31.369-.733,2.419-2.578,5.595-4.672,7.008-3.442,2.321-9.403,2.629-13.55,2.803-3.526.15-8.384-.141-11.681-1.402-3.196-1.221-7.75-3.513-9.344-6.541-1.059-12.65-.467-47.659-.467-47.659l39.714.468z" fill="#fff"/>
   <path d="m1463.868,810.104c0,0-.051,6.031-.085,13.954-.045,10.283-.065,23.755.085,31.369-.733,2.419-2.578,5.595-4.672,7.008-3.442,2.321-9.403,2.629-13.55,2.803-3.526.15-8.384-.141-11.681-1.402-3.196-1.221-7.75-3.513-9.344-6.541-1.059-12.65-.467-47.659-.467-47.659l39.714.468z" fill="none" stroke="#fff" stroke-width="1.1267"/>
  </g>
  <path d="m349.32 534.6-0.18374-16.855 9.3094 0.19819-6.1833 0.73845 1.1263 2.1071-1.9538 0.93621 1.655 1.7103-2.4824 0.63107 0.36792 1.9081-0.82748 3.4758h-0.45956l-0.36836 5.15z" fill="#fff" stroke="#fff" stroke-width=".4884"/>
  <path d="m357.17 521.66 1.4084 15.747-1.9914 0.3671 0.58308-16.114z" fill="#fff" stroke="#fff" stroke-width=".4884"/>
  <path d="m361.12 521.01-0.15717 16.562 3.0717-0.79319 0.17621-17.178-3.0908 1.4094z" fill="#fff" stroke="#fff" stroke-width=".4884"/>
  <path d="m354.44 521.14 0.20676 16.503-2.7729-1.5126 2.5661-14.99z" fill="#fff" stroke="#fff" stroke-width=".4884"/>
  <g transform="matrix(.44274 0 0 .4244 -282.22 172.35)" filter="url(#d)">
   <path d="m1463.9 812.37s-3.697 2.188-6.064 3.961c-6.402 2.943-19.146 2.263-25.043 1.402-3.619-2.068-8.367-5.214-8.367-5.214" fill="#fff"/>
   <path d="m1463.9 812.37s-3.697 2.188-6.064 3.961c-6.402 2.943-19.146 2.263-25.043 1.402-3.619-2.068-8.367-5.214-8.367-5.214" fill="none" stroke="#fff" stroke-width="1.1267"/>
  </g>
  <g transform="matrix(.44274 0 0 .4244 -282.22 172.35)" fill="#fff" stroke="#fff" stroke-width="1.1267">
   <path d="m1425.6 776-0.935 35.977s9.992 3.895 20.75 3.799c7.439-0.066 14.38-2.774 20.367-4.266 1.934-0.482 5.14-4.205 5.14-4.205v-12.616s-3.023-6.615-5.606-6.541c-5.816 0.166-24.764 0-24.764 0s1.313-6.603-0.935-9.345c-5.053-2.742-14.017-2.803-14.017-2.803z"/>
   <path d="m1427.4 777.4-0.933 33.641h21.026l-5.14-1.869 0.467-4.205-4.673-1.869v-4.206l-4.205-0.467-2.335-4.205v-6.541h-2.337l-1.87-10.279z"/>
  </g>
  <path d="m354.31 491.77-1.241 2.1814-1.8617-0.1982s-1.6647-1.3237-1.4482-2.5782c0.43831-2.5434 3.5171-2.9742 3.5171-2.9742h14.067l1.2414 3.371-0.20675 3.3714-1.8617-1.5864-1.4482 0.595-1.241-0.19819-0.20676-2.38-9.3099 0.39638z" fill="#fff" stroke="#fff" stroke-width=".4884"/>
  <path d="m372.02 491.51-0.82527-1.5817h15.886l3.3015 1.5817h-18.363z" fill="#fff" stroke="#fff" stroke-width=".4884"/>
  <g transform="matrix(.52314 0 0 .49282 -326.56 177.37)" filter="url(#y)">
   <path d="m1326 617.22s-2.12-25.222 3.256-43.066c5.342-17.732 16.547-35.826 26.045-35.612s14.65 14.493 14.65 14.493" fill="#fff"/>
   <path d="m1326 617.22s-2.12-25.222 3.256-43.066c5.342-17.732 16.547-35.826 26.045-35.612s14.65 14.493 14.65 14.493" fill="none" stroke="#fff" stroke-width="1.6901"/>
  </g>
  <g transform="matrix(.52314 0 0 .49282 -326.56 177.37)" enable-background="new" filter="url(#m)" opacity=".5">
   <path d="m1310 555.1c1.578-3.048 22.534 7.308 22.534 7.308l-5.634 20.937-22.646-4.953 5.746-23.292z" fill="#fff"/>
  </g>
  <path d="m308.61 483.17 0.25687 2.7854s8.1663 0.0936 11.983 1.4405c5.0002 1.7648 11.099 6.0611 14.745 9.7849 4.8281 4.9306 12.317 14.808 12.85 19.329-0.50118-5.3185-7.0671-14.266-11.967-19.458-3.7426-3.9662-10.125-8.0349-15.252-10.145-3.9691-1.6342-12.616-3.737-12.616-3.737z" fill="#fff" stroke="#fff" stroke-width=".48839"/>
  <path d="m265.63 481.35 0.13497 3.1885c-10.048 0.11729-17.165 3.296-23.223 7.8082s-13.578 21.746-13.578 21.746 6.3154-16.516 12.973-22.228c6.725-5.7719 23.693-10.514 23.693-10.514z" fill="#fff" stroke="#fff" stroke-width=".48839"/>
  <g transform="matrix(.52314 0 0 .49282 -326.56 177.37)" filter="url(#w)">
   <path d="m1079.4 657.33 41.42-26.478-0.531 21.074s2.483-6.035 4.779-5.944c2.834 0.112 10.089 5.944 10.089 5.944l75.406 1.621s4.714-4.44 7.434-4.323c3.975 0.172 5.842 4.323 5.842 4.323l2.124-13.509 11.683 5.403 1.062-4.323 3.718-3.242 20.179 18.372 6.903 1.081-21.771-17.832-19.648-8.104-15.399-4.323-89.212-0.54-8.497 1.08-33.454 25.938-2.127 3.782z" fill="#fff"/>
   <path d="m1079.4 657.33 41.42-26.478-0.531 21.074s2.483-6.035 4.779-5.944c2.834 0.112 10.089 5.944 10.089 5.944l75.406 1.621s4.714-4.44 7.434-4.323c3.975 0.172 5.842 4.323 5.842 4.323l2.124-13.509 11.683 5.403 1.062-4.323 3.718-3.242 20.179 18.372 6.903 1.081-21.771-17.832-19.648-8.104-15.399-4.323-89.212-0.54-8.497 1.08-33.454 25.938-2.127 3.782z" fill="none" stroke="#fff" stroke-width="1.1267"/>
  </g>
  <path d="m308.76 472.3 0.80933 18.224-3.2362 1.9392h-38.832l-2.4274-2.7144-0.40437-15.51 3.6405-4.2653 38.024 0.38785 2.4269 1.9387z" fill="#fff" stroke="#fff" stroke-width=".48839"/>
  <path d="m269.93 470.75-0.40437 18.224-2.8318-3.1023v-11.632l3.2362-3.4891z" fill="#fff"/>
  <path d="m305.12 473.07v14.734l2.8318-4.6532v-6.9793l-2.8318-3.1018z" fill="#fff"/>
  <path d="m265.86 495.05 2.081 0.89791 38.298-0.0739 2.8448-0.74267 0.48704-5.3411-4.2092 1.8643-37.372-0.60468-2.9615-1.8599 0.8318 5.8601z" fill="#fff" stroke="#fff" stroke-width=".48839"/>
  <g transform="matrix(.52314 0 0 .49282 -326.56 177.37)" filter="url(#c)">
   <path d="m1217.9 617.85s15.532 3.883 22.744 7.552 22.024 15.104 22.024 15.104" fill="#fff"/>
   <path d="m1217.9 617.85s15.532 3.883 22.744 7.552 22.024 15.104 22.024 15.104" fill="none" stroke="#fff" stroke-width="2.2534"/>
  </g>
  <g transform="matrix(.52314 0 0 .49282 -326.56 177.37)" filter="url(#b)">
   <path d="m1129.2 615.23s-7.381 1.598-17.204 5.276c-9.901 3.708-20.974 12.229-20.974 12.229" fill="#fff"/>
   <path d="m1129.2 615.23s-7.381 1.598-17.204 5.276c-9.901 3.708-20.974 12.229-20.974 12.229" fill="none" stroke="#fff" stroke-width="2.2534"/>
  </g>
  <path d="m258.48 500.9-0.27779-6.9551s-12.987 6.0838-16.956 9.5079c-3.9084 3.3723-7.6515 12.425-7.6515 12.425l1.785 8.6238" fill="#fff" stroke="#fff" stroke-width=".97678"/>
  <path d="m315.63 501.33-1.1446-0.50021 1.7164-5.7191s8.5571 3.0673 12.221 5.8497 8.512 8.1936 11.118 11.499c2.5608 3.2482 3.4193 5.6117 2.9934 7.0527l-2.7004 6.6905-0.59847-0.95507s1.5998-4.4358 2.5147-5.9389c0.82133-1.5031-2.0633-5.2687-3.8462-7.8811s-8.2479-9.0846-11.453-11.247-9.5076-3.874-9.5076-3.874l-1.3136 5.0233z" fill="#fff" stroke="#fff" stroke-width=".48839"/>
  <g transform="matrix(.52314 0 0 .49282 -326.56 177.37)" filter="url(#a)">
   <path d="m1232.7 650.18-1.783 5.442s5.057 1.936 10.427 5.578c4.789 3.249 9.24 7.514 12.749 11.111s7.851 8.703 11.688 14.926c3.811 6.177 5.961 12.284 5.961 12.284l3.565-7.256s-1.957-4.919-5.459-10.264c-3.551-5.421-8.257-10.906-12.012-14.407s-8.363-8.395-14.064-12.191c-5.595-3.725-11.072-5.223-11.072-5.223z" fill="#fff"/>
  </g>
  <g transform="matrix(.52314 0 0 .49282 -326.56 177.37)" filter="url(#v)">
   <path d="m1078.8 725.95 33.985 1.621-0.531 5.403 7.435 4.323-6.372 3.242 12.214 3.782-6.903 3.782 9.559 4.323-11.152 2.701 14.338 7.565-11.151 1.621 21.241 5.943s34.024 3.77 45.137 2.702c16.619-1.597 36.752-8.554 46.199-14.049 9.447-5.496 11.683-12.429 11.683-12.429l-16.462 1.621 12.214-4.863-11.683-1.621 12.213-4.862-9.558-1.621 38.765-3.783s-15.912 21.761-30.269 30.26c-17.2 10.183-48.167 16.017-67.972 14.05-11.292-1.122-37.762-0.334-60.005-14.59-22.624-14.497-32.925-35.121-32.925-35.121z" fill="#fff"/>
  </g>
  <g transform="matrix(.52314 0 0 .49282 -326.56 177.37)" filter="url(#a)">
   <path d="m1116.5 647.01-0.018 6.358s-5.057 0.104-10.426 3.747c-4.79 3.248-10.141 5.681-13.649 9.278s-8.751 8.704-12.589 14.926c-3.81 6.177-3.711 12.743-3.711 12.743l-1.766-6.341s0.157-5.834 3.659-11.18c3.551-5.42 8.257-10.906 12.013-14.407 3.755-3.501 6.563-4.731 12.264-8.527 5.596-3.725 14.223-6.597 14.223-6.597z" fill="#fff"/>
  </g>
  <path d="m415.13 294.78s-28.916-9.8588-39.668-11.228c-1.4669 0.41248-3.0028 2.0851-3.6065 3.4172-0.31754 5.25-1.3691 11.356-1.0306 16.598 0.74076 1.6179 3.4915 4.0854 4.1213 4.8813 11.091 2.1413 39.668 10.739 39.668 10.739s0.75489-4.1909 1.5454-9.2753c0.47816-3.0698-1.0301-15.132-1.0301-15.132z" fill="#fff" stroke="#fff" stroke-width=".48839"/>
  <path d="m182.65 295.36s20.372-8.0837 29.054-9.3211c1.1844 0.37306 2.7753-0.60468 3.2624 0.59976 0.25633 4.7468 1.1049 11.429 0.8318 16.168-0.24795 1.7948-1.0672 3.5276-3.6783 4.5792-8.9557 1.9363-31.332 8.3818-31.332 8.3818s0.0358-3.5921 0.32853-8.2197c0.49073-7.755 1.5328-12.188 1.5328-12.188z" fill="#fff" stroke="#fff" stroke-width=".48839"/>
  <g transform="matrix(.52314 0 0 .49282 -326.56 177.37)" filter="url(#ae)">
   <path d="m971.76 275.69 3.405-32.201 49.722-17.128 5.449 4.796 1.363 22.609-7.493 8.907z" fill="#fff"/>
  </g>
  <g transform="matrix(.52314 0 0 .49282 -326.56 177.37)" filter="url(#af)">
   <path d="m1413.1 281.17-70.155-20.554-4.087-6.851 2.043-26.034 4.087-6.167 69.475 21.239 1.362 26.035z" fill="#fff"/>
  </g>
  <g transform="matrix(.44106 0 0 .42377 -362.88 1.3928)" fill="#fff" stroke="#fff" stroke-width="1.1297">
   <path d="m1327 944.37 106.37-0.537 7.198-18.524-115.07-1.707 1.506 20.768z"/>
   <path d="m1325.3 923.99 115.09 1.391s0.863-9.917 8.37-15.995 26.932-13.196 44.641-12.517c17.669 0.678 32.76 14.373 39.061 20.167s6.975 11.126 6.975 11.126l122.76 2.782s3.593-40.758-31.389-67.455c-34.544-26.362-90.705-47.322-133.92-53.547-43.901-6.323-127.45 33.621-150.66 60.501-23.555 27.283-20.925 53.547-20.925 53.547z"/>
   <path d="m1661.8 931.2s11.344-0.015-35.106-0.968c-40.387-0.829-77.74-1.147-89.288-2.035 12.835 23.124 13.316 20.293 13.316 20.293s51.355 1.797 76.654 2.311 30.621-1.663 30.621-1.663l3.803-17.938z"/>
  </g>
  <g transform="matrix(.46837 0 0 .45453 -406.36 -19.303)" fill="#fff" stroke="#fff" stroke-width="1.0585">
   <path d="m1623.7 821.63-36.693 176.38 6.552 3.92 40.624-180.3h-10.483v-1e-3z" opacity=".25"/>
   <path d="m1676.1 841.22-66.834 193.36 10.484 14.372 65.523-202.51-9.173-5.226z" opacity=".25"/>
   <path d="m1639.4 825.55 30.141 1.307-61.592 207.74-15.725-31.356 47.176-177.69z" opacity=".5"/>
   <path d="m1376 813.79h13.104l22.278 167.24h-3.931l-31.451-167.24z" opacity=".5"/>
   <path d="m1324.9 826.85 9.173-2.613 38.004 199.9-5.242 2.613-41.935-199.9z" opacity=".25"/>
   <path d="m1302.6 830.77h26.21l39.313 199.9-10.483 18.292-55.04-218.19z" opacity=".25"/>
   <path d="m1415.3 809.87 14.414-3.92 3.931 145.02-6.551 7.839-11.794-148.94z" opacity=".25"/>
   <path d="m1471.7 804.64s75.386 5.272 104.84 11.759c-7.241 35.231-30.141 131.96-30.141 131.96l-76.008-33.969 1.312-109.75z" opacity=".25"/>
   <path d="m1415.3 809.87 14.414-3.92 3.931 145.02-6.551 7.839-11.794-148.94z" opacity=".25"/>
   <path d="m1431.5 808.06 14.542-3.424-1.06 145.07-6.818 7.611-6.664-149.26z" opacity=".25"/>
   <path d="m1447.4 808.45 14.59-3.212-3.186 145.04-6.928 7.51-4.476-149.34z" opacity=".25"/>
   <path d="m1623.7 821.63-36.693 176.38 6.552 3.92 40.624-180.3h-10.483v-1e-3z" opacity=".25"/>
   <path d="m1676.1 841.22-66.834 193.36 10.484 14.372 65.523-202.51-9.173-5.226z" opacity=".25"/>
   <path d="m1639.4 825.55 30.141 1.307-61.592 207.74-15.725-31.356 47.176-177.69z" opacity=".5"/>
   <path d="m1376 813.79h13.104l22.278 167.24h-3.931l-31.451-167.24z" opacity=".5"/>
   <path d="m1324.9 826.85 9.173-2.613 38.004 199.9-5.242 2.613-41.935-199.9z" opacity=".25"/>
   <path d="m1302.6 830.77h26.21l39.313 199.9-10.483 18.292-55.04-218.19z" opacity=".25"/>
   <path d="m1415.3 809.87 14.414-3.92 3.931 145.02-6.551 7.839-11.794-148.94z" opacity=".25"/>
   <path d="m1471.7 804.64s75.386 5.272 104.84 11.759c-7.241 35.231-30.141 131.96-30.141 131.96l-76.008-33.969 1.312-109.75z" opacity=".25"/>
   <path d="m1415.3 809.87 14.414-3.92 3.931 145.02-6.551 7.839-11.794-148.94z" opacity=".25"/>
   <path d="m1431.5 808.06 14.542-3.424-1.06 145.07-6.818 7.611-6.664-149.26z" opacity=".25"/>
   <path d="m1447.4 808.45 14.59-3.212-3.186 145.04-6.928 7.51-4.476-149.34z" opacity=".25"/>
  </g>
  <g transform="matrix(.44106 0 0 .42377 -575.97 169.87)">
   <path d="m2114 682.53s-46.357-31.732-84.384-41.052c-37.618-9.22-86.047-11.047-86.047-11.047l-3.502 50.278s-0.909 10.747 10.049 9.395c10.896-1.345 44.816 2.709 66.719 8.52 21.497 5.704 54.11 24.067 61.52 31.557 1.761 5.756-0.841 7.497 4.96 12.706 6.01 5.399 23.114 10.498 32.603 11.48s20.679 0.328 26.16-3.393c2.439-7.19-4.781-12.98-10.128-14.007-4.914 3.742-8.362 5.338-16.032 4.007-6.285-1.091-21.126-1.395-28.154-10.688-1.377-11.461 0.758-31.43 1.304-46.713 7.934-7.916 24.932-1.043 24.932-1.043z" fill="#fff" stroke="#fff" stroke-width="1.1297"/>
   <g filter="url(#x)">
    <path d="m1949 636.74s67.265 8.284 88.815 15.025c21.412 6.698 45.999 22.711 45.999 22.711l-1.399 19.908s-36.13-19.209-56.764-25.957c-20.635-6.749-76.651-10.691-76.651-10.691v-20.996z" fill="#fff"/>
   </g>
  </g>
  <g transform="matrix(.52314 0 0 .49282 -326.56 177.37)" filter="url(#l)">
   <path d="m1159.8 565.6s-11.361 0.945-26.272 5.889c-6.6 2.188-19.175 5.893-28.769 11.561-9.797 5.789-24.26 17.953-27.738 20.74-13.788 11.051-20.265 16.052-20.265 16.052" fill="#fff"/>
   <path d="m1159.8 565.6s-11.361 0.945-26.272 5.889c-6.6 2.188-19.175 5.893-28.769 11.561-9.797 5.789-24.26 17.953-27.738 20.74-13.788 11.051-20.265 16.052-20.265 16.052" fill="none" stroke="#fff" stroke-width="2.2593"/>
  </g>
  <g transform="matrix(.52314 0 0 .49282 -326.56 177.37)" filter="url(#k)">
   <path d="m1169.9 292.05c-0.948 9.581 30.309 7.349 52.534 5.373 9.585 1.368 51.537 8.655 65.135 12.826s43.455 22.029 62.463 34.103c19.372 12.306 40.768 78.685 40.768 78.685s-17.164-63.992-35.416-78.977c-18.251-14.984-51.375-36.243-69.055-41.616-16.91-5.14-40.143-10.579-68.758-13.884-28.507-3.291-46.805-5.248-47.671 3.49z" fill="#fff"/>
   <path d="m1169.9 292.05c-0.948 9.581 30.309 7.349 52.534 5.373 9.585 1.368 51.537 8.655 65.135 12.826s43.455 22.029 62.463 34.103c19.372 12.306 40.768 78.685 40.768 78.685s-17.164-63.992-35.416-78.977c-18.251-14.984-51.375-36.243-69.055-41.616-16.91-5.14-40.143-10.579-68.758-13.884-28.507-3.291-46.805-5.248-47.671 3.49z" fill="none" stroke="#fff" stroke-width="1.1297"/>
  </g>
  <g transform="matrix(.52314 0 0 .49282 -326.56 177.37)" filter="url(#k)">
   <path d="m1126.7 298.73c5.022 8.154-42.836 9.481-63.61 17.779-7.991 5.567-43.586 28.692-53.952 38.588s-24.623 87.563-24.595 111.81c0.028 24.358 1.276 57.673 1.276 57.673s-14.847-68.721-5.019-90.413 7.828-60.559 21.328-73.381c12.913-12.265 33.72-30.069 57.919-45.992 24.109-15.863 62.072-23.497 66.653-16.06z" fill="#fff"/>
   <path d="m1126.7 298.73c5.022 8.154-42.836 9.481-63.61 17.779-7.991 5.567-43.586 28.692-53.952 38.588s-24.623 87.563-24.595 111.81c0.028 24.358 1.276 57.673 1.276 57.673s-14.847-68.721-5.019-90.413 7.828-60.559 21.328-73.381c12.913-12.265 33.72-30.069 57.919-45.992 24.109-15.863 62.072-23.497 66.653-16.06z" fill="none" stroke="#fff" stroke-width="1.1297"/>
  </g>
  <path d="m349.61 536.08s0.97776 8.5484 2.8721 13.961 5.1384 11.993 10.872 21.434c5.6829 9.3566 25.976 31.036 32.412 36.772s6.7695 4.7192 6.7695 4.7192 28.069 6.102 20.719-0.19614c-7.4637-6.3963-14.8-12.81-21.744-19.861s-19.068-19.999-24.206-27.333-11.48-17.541-11.898-22.81c2.9489-2.0954-1.436-6.6855-1.436-6.6855h-14.36z" fill="#191a1a" stroke="#1a1a1a" stroke-width=".48839"/>
  <g transform="matrix(.52314 0 0 .49282 -326.56 177.37)" enable-background="new" filter="url(#ac)" opacity=".5">
   <path d="m1312 752.27c-7.255 5.646 8.196 32.595 17.303 44.344 10.727 13.838 27.14 35.073 39.092 48.256 9.221 10.169 20.474 19.467 28.197 27.388 4.454 4.568 21.156 16.085 22.43 9.782 1.551-7.671-14.144-12.525-19.866-18.259-8.239-8.255-21.729-20.613-29.479-29.345-9.587-10.805-21.853-28.389-30.76-39.779-10.634-13.595-19.252-48.353-26.917-42.387z" fill="#e6e6e6"/>
  </g>
  <path d="m236.65 450.5c-2.4488-1.9984-5.8738-4.22-5.8738-4.22s-12.769-48.569-8.0758-61.886 10.062-17.602 22.025-24.614 35.779-17.144 55.062-14.768 54.019 16.581 63.137 28.13 8.1909 22.332 5.1388 33.053c-3.1075 10.918-1.6442 26.401-5.1388 32.35-3.4951 5.9483-9.5437 9.1422-9.5437 9.1422l5.8734 3.5162 5.7959-10.248 26.059 5.6945 8.523-27.796-2.2024-45.711-22.759-29.537-60.201-21.097-71.948 7.7357-35.974 18.988-15.418 30.943-2.2025 40.086 6.6073 33.053h22.759l1.4685 35.163 11.746-6.3292 7.3418-4.9227s1.5527-9.4877 0-18.285c-1.673-9.4818 0.2464-6.4411-2.2019-8.4395z" stroke="#000" stroke-width=".48839"/>
  <path d="m183.36 387.53s-1.2676 3.0377-6.6931-1.5267-16.1-28.022-14.661-36.941 1.2796-8.8549 13.386-16.181 43.88-13.079 72.03-15.876 89.224-1.0965 114.74 2.1368 44.581 6.9906 55.138 13.128 13.93 9.7312 16.892 18.318 2.3829 28.162-3.1875 35.72-19.706 10.708-24.541 10.686-4.781-2.1373-4.781-2.1373l-1.9121-17.707s-9.2842-21.55-17.53-29.614-24.482-16.757-36.971-21.066-30.826-6.2913-44.939-6.7166-35.438 1.2375-48.445 4.2742-28.982 8.7593-37.609 14.654-15.044 14.246-19.76 21.676-11.154 27.171-11.154 27.171z" fill="#540" stroke="#f00" stroke-width=".48839"/>
  <path d="m180.55 322.83s0.51527-26.824 5.7718-39.44 16.603-27.963 30.783-41.283c13.987-13.137 52.609-24.218 58.874-25.433 5.8943-1.1428 11.678-9.2196 15.007-10.321s4.7894-0.38785 7.696 0.73725 7.1237 5.8167 14.622 8.4779c8.5084 3.0195 20.218 3.6912 32.707 9.2147s34.162 18.937 44.251 29.488 20.993 29.18 24.248 40.406-0.7753 31.47-0.7753 31.47l-121.98-15.112-111.21 11.795z" fill="#fe0000" stroke="#000200" stroke-width=".2442"/>
  <path d="m234.13 447.41c2.4698-6.8856 11.908-22.286 20.259-28.775 7.6745-5.9636 15.008-15.535 18.164-25.429 3.0892-9.6878 16.273-11.738 24.45-11.376s16.608 7.062 21.656 16.06 5.0682 12.809 13.273 18.737c8.205 5.9276 14.438 26.002 19.56 30.113s6.986 2.6765 6.986 2.6765l-2.0957 10.038s-24.733-21.428-75.447-22.083c-0.4159 17.413-1.5767 19.865-1.5767 19.865s-37.622 10.693-41.735 20.955c-2.0183-8.4764 5.9131-19.213-3.4936-30.782z" stroke="#000" stroke-width=".48839"/>
  <path d="m195.71 444.06c-3.4093-13.291-7.3392-35.016-4.1914-50.188s9.6499-36.314 27.244-48.85 60.237-19.142 86.624-16.729 66.507 10.904 81.733 32.12 5.5333 70.575 1.0855 81.705c0.44258-8.9451-14.397-1.8628-20.646-0.0655s-10.479 17.398-10.479 17.398-22.384-12.804-34.23-16.324-41.703-6.103-41.703-6.103-0.66961 11.411-0.53256 20.392c-11.713 2.9017-28.273 9.6183-36.225 15.208s-10.591 7.6332-18.204 12.235c-0.70729-4.6906-1.1567-0.1094-1.1373-8.6785 0.0192-8.5967-1.831-29.994-8.3828-34.797s-9.1645-0.76239-20.957 2.6765z" opacity=".5" stroke="#000" stroke-width=".48839"/>
  <g transform="matrix(.44974 -.00659 .00711 .43081 -291.77 177.04)" fill="none" opacity=".5" stroke="#fff" stroke-width="6.6565">
   <path d="m1132.7 296.68s15.923-52.414 29.941-74.427 32.309-46.161 59.885-69.294c28.079-23.557 51.626-43.282 82.126-38.497 29.666 4.653 68.92 38.759 88.971 57.317s32.195 36.047 42.773 58.173 21.388 67.583 21.388 67.583"/>
   <path d="m1253.3 128.15s17.427-11.589 30.834-22.197c8.698-6.881 12.528-14.27 17.929-14.589s8.122 7.986 16.283 16.224c10.31 10.408 29.057 26.55 29.057 26.55"/>
  </g>
  <path d="m390.93 444.44 1.5658 11.735s8.7747-21.714 10.062-35.339c1.2869-13.625 3.1389-40.979-4.7915-56.451s-21.332-27.039-39.288-35.798-49.774-16.015-72.347-14.686-63.372 14.434-78.576 27.078-21.339 24.97-24.435 41.765c-3.0965 16.795 2.8103 57.004 6.1375 63.998 7.834-1.7224 6.3196-2.9579 6.3196-2.9579-0.17312 0.33166-7.9685-32.909-2.8747-56.91 5.0771-23.922 6.2668-24.539 16.804-37.241 10.726-12.01 55.352-20.381 76.624-21.964s45.837 3.7464 62.286 9.1792c16.307 5.3855 39.694 15.821 43.6 34.88 3.8158 18.617 4.815 37.467 3.8325 48.649s-4.9196 24.063-4.9196 24.063z" fill="#1a1a1a" stroke="#1a1a1a" stroke-width=".48839"/>
  <g transform="matrix(.44979 0 0 .43086 -291.2 168.47)">
   <path d="m1052.7 504.03s1.114 7.155-8.787-2.451-26.01-59.766-25.565-76.694 5.855-22.854 11.717-29.825 1.976-6.061 24.5-14.913 93.398-19.213 129.95-26.63c36.749-7.456 166.16-5.281 216.24-2.13s89.186 8.198 117.17 15.978c27.985 7.779 57.206 19.12 69.237 29.825 12.032 10.705 12.671 15.345 15.979 27.695s3.107 40.938 0 53.26-8.395 21.066-14.913 27.695-22.369 14.913-26.629 14.913-16.03-0.373-16.03-0.373l-0.534 23.807 30.41-3.196c20.23 2.595 31.924-9.055 44.739-23.434 5.608-6.926 10.495-15.686 13.848-29.826s4.838-45.532 0-62.846-11.372-31.289-25.565-43.673c-14.193-12.385-35.094-18.484-69.238-28.76s-83.304-22.415-159.78-26.63-73.411-5.114-103.32-4.261-61.045 0.159-95.867 5.326-110.04 20.23-135.28 29.825-26.471 12.306-36.216 20.239-26.304 19.383-27.696 31.956c-1.399 12.645 2.485 12.2 7.457 28.76s21.407 66.427 33.021 78.824c11.615 12.397 13.007 10.433 20.238 12.783s11.555 3.461 11.555 3.461l-0.639-28.705z" stroke="#000" stroke-width="1.1094"/>
   <g filter="url(#s)">
    <path d="m1607.5 404.12s-26.193-20.216-49.082-29.296-48.75-17.715-79.89-23.434-99.218-11.891-136.34-13.848-81.706-0.466-118.24 2.131-92.667 13.436-119.3 18.108-44.925 10.979-51.13 10.652c-5.142-0.27-6.142-2.779 1.065-7.725 7.668-5.261 127.39-26.058 172.33-29.381s88.161-4.649 125.93-2.307 97.423 8.983 128.89 14.913 62.679 14.739 80.955 21.304 15.939 11.482 26.113 19.174c10.176 7.691 18.708 19.709 18.708 19.709z" fill="#999"/>
    <path d="m1607.5 404.12s-26.193-20.216-49.082-29.296-48.75-17.715-79.89-23.434-99.218-11.891-136.34-13.848-81.706-0.466-118.24 2.131-92.667 13.436-119.3 18.108-44.925 10.979-51.13 10.652c-5.142-0.27-6.142-2.779 1.065-7.725 7.668-5.261 127.39-26.058 172.33-29.381s88.161-4.649 125.93-2.307 97.423 8.983 128.89 14.913 62.679 14.739 80.955 21.304 15.939 11.482 26.113 19.174c10.176 7.691 18.708 19.709 18.708 19.709z" fill="none" stroke="#808080" stroke-width="1.1094"/>
   </g>
  </g>
  <path d="m152.49 312.41s3.4088-18.48 5.6516-25.039 9.3015-19.176 9.3015-19.176-3.3936 1.7372-4.4357-0.72887c-0.99761-2.3621 3.1682-11.418 3.1682-11.418s-11.562 16.992-12.672 28.059c-1.0986 10.947-2.6613 28.545-2.6613 28.545l1.6479-0.24247z" fill="#ccc" stroke="#ccc" stroke-width=".48839"/>
  <path d="m150.84 336.32-1.0965 5.4762 4.4823 0.16263 2.6481-5.212-6.0339-0.42678z" stroke="#000" stroke-width=".48839"/>
  <path d="m150.98 331.74-10.008 2.7578s-0.34476 1.199-1.3717 2.5641c-1.0813 1.4376-6.4195 0.0266-6.4195 0.0266-0.35052-2.7105-0.11874-8.8244 0.01-9.0038 0.12766-0.90481-1.4972 0.91023-2.4593-0.1715s-1.0322-2.1206 0.16059-3.1713 1.073 0.52731 2.3175-0.57167c0.18417-1.9703-0.45305-7.6056 1.2388-9.0037 1.8426-0.52682 6.8182 0.45289 6.8182 0.45289-1.197-1.0211 0.76797 1.3479 1.3717 3.2368l10.196 0.88855-1.8535 11.995z" stroke="#000" stroke-width=".48839"/>
  <path d="m175.55 323.61-22.718-5.6388-1.8535 18.213 6.0245 0.44403 18.546-13.019z" fill="#333" stroke="#000" stroke-width=".48839"/>
  <path d="m142.32 346.7 3.1017-40.652 3.5469-11.266-0.12985 10.02 5.2185-1.5829-1.2022 9.5388s-5.1158 1.549-4.6528 3.9782-1.9869 29.685-1.9869 29.685z" stroke="#000" stroke-width=".51075"/>
  <path d="m444.23 333.5 1.097 5.4757-6.5498 0.65791-3.866-4.2747 9.3188-1.8589z" stroke="#000" stroke-width=".48839"/>
  <path d="m445.85 329.2-0.3029 9.7247-1.0594-5.6605-0.6058-4.0642h1.9681z" fill="#333" stroke="#333" stroke-width=".48839"/>
  <path d="m444.09 328.92 10.007 2.7578s0.34475 1.199 1.3722 2.5646c1.0808 1.4375 6.4195 0.0261 6.4195 0.0261 0.34998-2.7105 0.11823-8.8239-9e-3 -9.0032-0.12764-0.90481 1.4967 0.91023 2.4593-0.1715s1.0316-2.1206-0.16113-3.1713-1.073 0.52731-2.317-0.57167c-0.18467-1.9703 0.45252-7.6056-1.2388-9.0038-1.843-0.52682-6.8187 0.4529-6.8187 0.4529 1.1975-1.0211-0.76798 1.3483-1.3717 3.2373l-10.196 0.88854 1.854 11.994z" stroke="#000" stroke-width=".48839"/>
  <path d="m415.65 324.25 3.9252-4.8281 22.667-4.2772 1.854 18.213-9.1242 1.6825-19.322-10.791z" fill="#333" stroke="#000" stroke-width=".48839"/>
  <path d="m452.76 343.88-3.1022-37.17-3.5464-10.301 1.0594 9.8746-6.1485-2.1595 1.2022 8.7218s5.1163 1.4164 4.6528 3.6375 1.9869 27.142 1.9869 27.142l3.8958 0.2543z" stroke="#000" stroke-width=".48839"/>
  <path d="m461.48714,312.22033h-7.81211c-.3097,0-.56081.23655-.56081.5283v2.28124c0,.29175.25111.5283.56081.5283h7.81211c.3097,0 .56081-.23655.56081-.5283v-2.28124c0-.29175-.25163-.5283-.56081-.5283z" fill="#4d4d4d" stroke="#000" stroke-linecap="round" stroke-linejoin="round" stroke-width=".48839"/>
  <path d="m461.81411,331.52442h-6.95154c-.2961,0-.53675.2262-.53675.50514v2.18219c0,.27942.24065.50562.53675.50562h6.95154c.29609,0 .53674-.2262.53674-.50562v-2.18219c0-.27894-.24065-.50514-.53674-.50514z" fill="#333" stroke="#000" stroke-linecap="round" stroke-linejoin="round" stroke-width=".48839"/>
  <path d="m464.21743,321.21915h-8.73023c-.39079,0-.70729.29815-.70729.66629v2.87656c0,.36813.31598.66629.70729.66629h8.73023c.39079,0 .70729-.29816.70729-.66629v-2.87656c0-.36814-.3165-.66629-.70729-.66629z" fill="#333" stroke="#000" stroke-linecap="round" stroke-linejoin="round" stroke-width=".48839"/>
  <g transform="matrix(.52314 0 0 .49282 -326.56 177.37)" filter="url(#j)">
   <path d="m1422.4 298.4s0.111-2.488 5.433-8.292c30.122-4.692 39.16-10.656 39.584-2.765 0.257 4.786-29.903 0.055-35.703 5.923-6.955 7.039-9.314 5.134-9.314 5.134z" fill="#b3b3b3"/>
  </g>
  <g transform="matrix(.52314 0 0 .49282 -326.56 177.37)" filter="url(#g)">
   <path d="m1493.629,275.894h10.149c.733,0 1.329.605 1.329,1.352v.455c0,.747-.596,1.352-1.329,1.352h-10.149c-.733,0-1.328-.605-1.328-1.352v-.455c0-.746.595-1.352 1.328-1.352z" fill="#b3b3b3"/>
  </g>
  <g transform="matrix(.52314 0 0 .49282 -326.56 177.37)" filter="url(#h)">
   <path d="m1496.734,294.849h13.254c.733,0 1.329.605 1.329,1.352v.061c0,.747-.596,1.352-1.329,1.352h-13.254c-.733,0-1.328-.605-1.328-1.352v-.061c0-.746.594-1.352 1.328-1.352z" fill="#b3b3b3"/>
  </g>
  <g transform="matrix(.52314 0 0 .49282 -326.56 177.37)" filter="url(#i)">
   <path d="m1494.824,314.199h10.866c.535,0 .97.442.97.987 0,.545-.435.987-.97.987h-10.866c-.536,0-.971-.442-.971-.987 0-.545.434-.987.971-.987z" fill="#b3b3b3"/>
  </g>
  <g transform="matrix(.52314 0 0 .49282 -326.56 177.37)" filter="url(#f)">
   <path d="m952.74 299.84-34.999-6.931 0.567-4.62 37.459 9.625z" fill="#b3b4b4"/>
   <path d="m952.74 299.84-34.999-6.931 0.567-4.62 37.459 9.625z" fill="none" stroke="#b3b3b3" stroke-width="1.1267"/>
  </g>
  <path d="m341.89 529.56 16.132-32.86-33.272-23.195-39.322-8.6982-34.784 7.2488-24.702 24.161-0.50433 7.2488 7.1242 24.677 109.33 1.4178z" fill="#1a1a1a" stroke="#000" stroke-width=".48839"/>
  <path d="m235.44 524.6c1.7065-3.3014 3.2378-10.168 6.8333-14.035s12.364-9.1506 16.074-9.9805c1.1143-0.79294 1.6076-2.6238 3.8331-2.2689 2.2642 0.36075 2.3929 1.5479 4.171 2.5804 7.7347-0.0719 32.531 0.39722 40.996 0.31196 1.1629-0.63771 1.4826-1.8377 4.3044-1.645 3.0316 0.20649 1.4172 1.8959 6.8882 2.4651 3.6055 1.546 8.5644 6.0178 12.249 9.7991 3.6845 3.7809 7.2968 11.46 8.4446 14.346 1.7238 0.85996 2.4986 0.80033 2.6178 2.1689s-1.504 2.2256-2.2924 3.4305c0.0602 5.2909-5.3408 14.125-12.807 19.394s-24.907 8.9387-37.344 9.0033-32.765-5.0528-41.027-10.803-11.074-15.163-13.591-18.529c-0.59532-1.1552-2.3646-2.4828-2.2929-3.8706 0.0795-1.5706 0.65915-1.6445 2.9422-2.367z" fill="#1a1a1a" stroke="#000" stroke-width=".48839"/>
  <path d="m267.65 502.61h38.312c1.944 0 3.5197 1.4849 3.5197 3.3162s-1.5757 3.3162-3.5197 3.3162h-38.312c-1.944 0-3.5202-1.4849-3.5202-3.3162s1.5767-3.3162 3.5202-3.3162z" fill="#b3b4b4"/>
  <path d="m268.29 503.53h36.647c0.91809 0 1.662 0.70127 1.662 1.5662s-0.74391 1.5657-1.662 1.5657h-36.647c-0.91815 0-1.6626-0.70079-1.6626-1.5657s0.74443-1.5662 1.6626-1.5662z"/>
  <path d="m224.4 485.47s12.422-8.8096 21.266-15.507c3.3287-2.5208 6.295-4.0682 8.0972-5.0854 7.7101-4.355 26.693-8.0595 26.693-8.0595s-0.61838 1.473 0 3.6744c0.6314 2.2502-0.28931 1.5282 5.9084 1.5105 6.3755-0.0172 23.731 1.6667 32.059 4.2564s17.723 9.0215 22.593 12.236 12.801 9.5818 12.801 9.5818-0.50902 0.12813-2.361 1.8076c-1.7457 1.5834-1.323 1.9412-0.43159 3.1333 0.83548 1.1162 1.0824 2.2625-0.68738 1.7465-1.8127-0.52879-4.3055 1.8806-6.2756-1.4903-2.0905-3.5769-15.328-14.069-21.241-16.464s-14.023-3.6823-14.023-3.6823l-2.2401-0.90136-39.978-1.234c-9.3031 3.0343-16.439 6.4618-28.355 15.468-9.5196 7.1936-12.595 13.334-11.81 19.771-2.6209-7.9718-7.8482-25.388-2.0146-20.761z" fill="#1a1a1a" stroke="#000" stroke-width=".48839"/>
  <g transform="matrix(.44274 0 0 .4244 -282.22 172.35)" stroke="#000" stroke-width="1.1267">
   <path d="m1061.9 647.13s16.142-4.767 24.461-7.56 14.501-11.538 26.401-10.823c12.328 0.741 14.515 3.509 22.501 18.169s11.565 69.18 11.467 88.41c-0.098 19.017 4.876 11.744 0.662 18.865-3.732 6.305-6.493 9.733-6.493 9.733l-41.123 2.163v-6.489h-24.89s0.208-24.83-1.081-50.827c-1.345-27.074-11.905-61.641-11.905-61.641z" fill="#1a1a1a"/>
   <path d="m1073.8 758.52s-9.042-26.759-14.069-60.559c-5.006-33.659 1.297-49.952 1.297-49.952s14.314 41.902 16.018 58.603-3.246 51.908-3.246 51.908z"/>
   <path d="m1073.8 644.97s32.56 53.077 32.464 77.863c-0.1 26.209-6.493 37.85-6.493 37.85" fill="none"/>
  </g>
  <path d="m364.9 537.29s3.2372 1.8673 0.51372 5.8739c-2.6853 3.9504-5.5386 2.9495-5.5386 2.9495" fill="none" stroke="#000" stroke-width=".48839"/>
  <path d="m387.36 472.79c1.7196-6.8132 1.3414-24.748-2.9045-25.364-6.5853-0.95508-12.975 12.787-13.875 21.034-0.88725 8.131-2.6916 20.514 3.2268 23.198 4.6015 2.0876 11.52-10.813 13.553-18.868z" fill="#666" stroke="#000" stroke-width=".48839"/>
  <path d="m356.38 458.56s2.7737-14.184 8.1135-17.348c6.2584-3.7074 19.715-2.54 25.446 1.8816 1.8247 3.7622 2.4117 3.7996 2.5817 7.4233 0.45726 9.7637-3.8723 16.704-3.8723 16.704s0.64501-18.791-4.5179-20.106c-4.7679-1.2143-11.701 12.659-12.907 19.487-1.3225 7.4878-2.6121 20.649 1.9356 25.673 1.086 1.2-5.4852 0.61849-5.4852 0.61849s-2.1276-6.7033-4.5179-8.3513c-1.5401 3.604-20.652-3.0929-20.652-3.0929l0.96837-25.674 12.907 2.7839z" fill="#343434" stroke="#000" stroke-width=".48839"/>
  <path d="m388.97 465.36s2.8067-19.762-5.809-21.034c-5.4731-0.80821-11.354 11.912-13.23 18.559-4.0847 18.035 1.9362 29.076 1.9362 29.076" fill="none" stroke="#000" stroke-width=".48839"/>
  <path d="m356.38 459.18s-1.798 8.4045-1.9362 12.064c-0.28302 7.4962 2.5817 12.682 2.5817 12.682" fill="none" stroke="#000" stroke-width=".48839"/>
  <g transform="matrix(.44274 0 0 .4244 -282.22 172.35)">
   <g transform="translate(5.981 -10.352)">
    <path d="m1493.4 690.86c0 2.8177-0.6527 5.1019-1.4577 5.1019s-1.4577-2.2842-1.4577-5.1019 0.6526-5.1019 1.4577-5.1019 1.4577 2.2842 1.4577 5.1019z" stroke="#000" stroke-width="1.2136"/>
   </g>
   <g transform="translate(11.732 -28.065)">
    <path d="m1493.4 690.86c0 2.8177-0.6527 5.1019-1.4577 5.1019s-1.4577-2.2842-1.4577-5.1019 0.6526-5.1019 1.4577-5.1019 1.4577 2.2842 1.4577 5.1019z" stroke="#000" stroke-width="1.2136"/>
   </g>
   <g transform="translate(14.032 -14.262)">
    <path d="m1493.4 690.86c0 2.8177-0.6527 5.1019-1.4577 5.1019s-1.4577-2.2842-1.4577-5.1019 0.6526-5.1019 1.4577-5.1019 1.4577 2.2842 1.4577 5.1019z" stroke="#000" stroke-width="1.2136"/>
   </g>
   <g transform="translate(16.793 2.3004)">
    <path d="m1493.4 690.86c0 2.8177-0.6527 5.1019-1.4577 5.1019s-1.4577-2.2842-1.4577-5.1019 0.6526-5.1019 1.4577-5.1019 1.4577 2.2842 1.4577 5.1019z" stroke="#000" stroke-width="1.2136"/>
   </g>
   <g transform="translate(-8.0514 -1.3802)">
    <path d="m1493.4 690.86c0 2.8177-0.6527 5.1019-1.4577 5.1019s-1.4577-2.2842-1.4577-5.1019 0.6526-5.1019 1.4577-5.1019 1.4577 2.2842 1.4577 5.1019z" stroke="#000" stroke-width="1.2136"/>
   </g>
   <g transform="translate(.23004 -18.173)">
    <path d="m1493.4 690.86c0 2.8177-0.6527 5.1019-1.4577 5.1019s-1.4577-2.2842-1.4577-5.1019 0.6526-5.1019 1.4577-5.1019 1.4577 2.2842 1.4577 5.1019z" stroke="#000" stroke-width="1.2136"/>
   </g>
   <g transform="translate(-3.4506 45.088)">
    <path d="m1493.4 690.86c0 2.8177-0.6527 5.1019-1.4577 5.1019s-1.4577-2.2842-1.4577-5.1019 0.6526-5.1019 1.4577-5.1019 1.4577 2.2842 1.4577 5.1019z" stroke="#000" stroke-width="1.2136"/>
   </g>
   <g transform="translate(-3.4506 16.333)">
    <path d="m1493.4 690.86c0 2.8177-0.6527 5.1019-1.4577 5.1019s-1.4577-2.2842-1.4577-5.1019 0.6526-5.1019 1.4577-5.1019 1.4577 2.2842 1.4577 5.1019z" stroke="#000" stroke-width="1.2136"/>
   </g>
   <g transform="translate(7.1312 18.173)">
    <path d="m1493.4 690.86c0 2.8177-0.6527 5.1019-1.4577 5.1019s-1.4577-2.2842-1.4577-5.1019 0.6526-5.1019 1.4577-5.1019 1.4577 2.2842 1.4577 5.1019z" stroke="#000" stroke-width="1.2136"/>
   </g>
   <g transform="translate(0 2.5304)">
    <path d="m1493.4 690.86c0 2.8177-0.6527 5.1019-1.4577 5.1019s-1.4577-2.2842-1.4577-5.1019 0.6526-5.1019 1.4577-5.1019 1.4577 2.2842 1.4577 5.1019z" stroke="#000" stroke-width="1.2136"/>
   </g>
   <g transform="translate(8.7415 4.6008)">
    <path d="m1493.4 690.86c0 2.8177-0.6527 5.1019-1.4577 5.1019s-1.4577-2.2842-1.4577-5.1019 0.6526-5.1019 1.4577-5.1019 1.4577 2.2842 1.4577 5.1019z" stroke="#000" stroke-width="1.2136"/>
   </g>
   <g transform="translate(15.873 17.483)">
    <path d="m1493.4 690.86c0 2.8177-0.6527 5.1019-1.4577 5.1019s-1.4577-2.2842-1.4577-5.1019 0.6526-5.1019 1.4577-5.1019 1.4577 2.2842 1.4577 5.1019z" stroke="#000" stroke-width="1.2136"/>
   </g>
   <g transform="translate(-14.032 28.065)">
    <path d="m1493.4 690.86c0 2.8177-0.6527 5.1019-1.4577 5.1019s-1.4577-2.2842-1.4577-5.1019 0.6526-5.1019 1.4577-5.1019 1.4577 2.2842 1.4577 5.1019z" stroke="#000" stroke-width="1.2136"/>
   </g>
   <g transform="translate(-6.9012 31.055)">
    <path d="m1493.4 690.86c0 2.8177-0.6527 5.1019-1.4577 5.1019s-1.4577-2.2842-1.4577-5.1019 0.6526-5.1019 1.4577-5.1019 1.4577 2.2842 1.4577 5.1019z" stroke="#000" stroke-width="1.2136"/>
   </g>
   <g transform="translate(-11.962 13.342)">
    <path d="m1493.4 690.86c0 2.8177-0.6527 5.1019-1.4577 5.1019s-1.4577-2.2842-1.4577-5.1019 0.6526-5.1019 1.4577-5.1019 1.4577 2.2842 1.4577 5.1019z" stroke="#000" stroke-width="1.2136"/>
   </g>
   <g transform="translate(2.9905 31.746)">
    <path d="m1493.4 690.86c0 2.8177-0.6527 5.1019-1.4577 5.1019s-1.4577-2.2842-1.4577-5.1019 0.6526-5.1019 1.4577-5.1019 1.4577 2.2842 1.4577 5.1019z" stroke="#000" stroke-width="1.2136"/>
   </g>
   <g transform="translate(-6.2111 56.59)">
    <path d="m1493.4 690.86c0 2.8177-0.6527 5.1019-1.4577 5.1019s-1.4577-2.2842-1.4577-5.1019 0.6526-5.1019 1.4577-5.1019 1.4577 2.2842 1.4577 5.1019z" stroke="#000" stroke-width="1.2136"/>
   </g>
   <g transform="translate(4.3708 46.468)">
    <path d="m1493.4 690.86c0 2.8177-0.6527 5.1019-1.4577 5.1019s-1.4577-2.2842-1.4577-5.1019 0.6526-5.1019 1.4577-5.1019 1.4577 2.2842 1.4577 5.1019z" stroke="#000" stroke-width="1.2136"/>
   </g>
   <g transform="translate(11.732 32.896)">
    <path d="m1493.4 690.86c0 2.8177-0.6527 5.1019-1.4577 5.1019s-1.4577-2.2842-1.4577-5.1019 0.6526-5.1019 1.4577-5.1019 1.4577 2.2842 1.4577 5.1019z" stroke="#000" stroke-width="1.2136"/>
   </g>
   <g transform="translate(-9.8917 43.938)">
    <path d="m1493.4 690.86c0 2.8177-0.6527 5.1019-1.4577 5.1019s-1.4577-2.2842-1.4577-5.1019 0.6526-5.1019 1.4577-5.1019 1.4577 2.2842 1.4577 5.1019z" stroke="#000" stroke-width="1.2136"/>
   </g>
  </g>
  <path d="m347.28 495.14h4.5367c0.91815 0 1.6626 0.70128 1.6626 1.5657v3.0155c0 0.86489-0.74444 1.5662-1.6626 1.5662h-4.5367c-0.91762 0-1.662-0.70128-1.662-1.5662v-3.0155c0-0.8644 0.74443-1.5657 1.662-1.5657z" fill="#ccc"/>
  <path d="m353.46 487.8h11.203c2.0476 0 3.7075 1.5637 3.7075 3.4926v14.629c0 1.9289-1.6599 3.4926-3.7075 3.4926h-11.203c-2.0476 0-3.7075-1.5637-3.7075-3.4926v-14.629c0-1.9289 1.6599-3.4926 3.7075-3.4926z" fill="#ccc"/>
  <g transform="matrix(.52314 0 0 .49282 -326.56 177.37)" filter="url(#u)">
   <path d="m1318.492,641.989-4.746.402-.395,2.816-12.653-.402-2.769,3.219 .396,7.645 6.327.805-.396,12.474 1.977-.403v-14.887l-4.35-.805 .791-4.025 11.468.403 1.186-1.61h3.955l.395-2.414 2.768.403-.396-1.207 5.932.402-4.745-4.426z" fill="#fff"/>
   <path d="m1318.492,641.989-4.746.402-.395,2.816-12.653-.402-2.769,3.219 .396,7.645 6.327.805-.396,12.474 1.977-.403v-14.887l-4.35-.805 .791-4.025 11.468.403 1.186-1.61h3.955l.395-2.414 2.768.403-.396-1.207 5.932.402-4.745-4.426z" fill="none" stroke="#fff" stroke-width="1.1267"/>
  </g>
  <g transform="matrix(.52314 0 0 .49282 -326.56 177.37)" filter="url(#e)">
   <path d="m1323.632,687.456c0,0-.043,5.193-.072,12.017-.038,8.855-.055,20.457.072,27.014-.62,2.083-2.182,4.818-3.954,6.035-2.913,1.999-7.958,2.264-11.468,2.414-2.984.129-7.096-.121-9.886-1.207-2.705-1.052-6.559-3.025-7.908-5.633-.896-10.894-.396-41.042-.396-41.042l33.612.402z" fill="#959595"/>
   <path d="m1323.632,687.456c0,0-.043,5.193-.072,12.017-.038,8.855-.055,20.457.072,27.014-.62,2.083-2.182,4.818-3.954,6.035-2.913,1.999-7.958,2.264-11.468,2.414-2.984.129-7.096-.121-9.886-1.207-2.705-1.052-6.559-3.025-7.908-5.633-.896-10.894-.396-41.042-.396-41.042l33.612.402z" fill="none" stroke="#1a1a1a" stroke-width="1.1267"/>
  </g>
  <path d="m349.32 534.6-0.18417-16.855 9.3094 0.19811-6.183 0.73824 1.1263 2.1068-1.9534 0.93586 1.6547 1.7106-2.4823 0.63081 0.36776 1.9087-0.82764 3.4753h-0.45982l-0.36776 5.1509z" fill="#808080" stroke="#808080" stroke-width=".48839"/>
  <path d="m357.17 521.66 1.4083 15.747-1.9916 0.36715 0.58326-16.114z" fill="#1a1a1a" stroke="#1a1a1a" stroke-width=".48839"/>
  <path d="m361.12 521.01-0.15749 16.562 3.0719-0.79295 0.17628-17.178-3.0907 1.409z" fill="#b3b3b4" stroke="#b3b3b3" stroke-width=".48839"/>
  <path d="m354.44 521.14 0.20717 16.502-2.7732-1.5124 2.566-14.99z" fill="#1a1a1a" stroke="#1a1a1a" stroke-width=".48839"/>
  <g transform="matrix(.52314 0 0 .49282 -326.56 177.37)" filter="url(#d)">
   <path d="m1323.7 689.41s-3.129 1.884-5.132 3.411c-5.418 2.534-16.203 1.949-21.194 1.207-3.063-1.781-7.081-4.49-7.081-4.49" fill="none" stroke="#242424" stroke-width="1.1267"/>
  </g>
  <g transform="matrix(.44274 0 0 .4244 -282.22 172.35)" stroke-width="1.1267">
   <path d="m1425.6 776-0.935 35.977s9.992 3.895 20.75 3.799c7.439-0.066 14.38-2.774 20.367-4.266 1.934-0.482 5.14-4.205 5.14-4.205v-12.616s-3.023-6.615-5.606-6.541c-5.816 0.166-24.764 0-24.764 0s1.313-6.603-0.935-9.345c-5.053-2.742-14.017-2.803-14.017-2.803z" fill="#b3b3b3" stroke="#b3b3b3"/>
   <path d="m1427.4 777.4-0.933 33.641h21.026l-5.14-1.869 0.467-4.205-4.673-1.869v-4.206l-4.205-0.467-2.336-4.205v-6.541h-2.337l-1.869-10.279z" fill="#808080" stroke="#808080"/>
  </g>
  <g transform="matrix(.52314 0 0 .49282 -326.56 177.37)" filter="url(#t)">
   <path d="m1301.488,637.964-2.372,4.427-3.559-.402c0,0-2.928-2.657-2.769-5.231 .422-6.827 6.723-6.035 6.723-6.035h26.889l2.373,6.84-.396,6.841-3.559-3.219-2.769,1.207-2.372-.402-.396-4.829-17.793.803z" fill="#808080"/>
   <path d="m1301.488,637.964-2.372,4.427-3.559-.402c0,0-2.928-2.657-2.769-5.231 .422-6.827 6.723-6.035 6.723-6.035h26.889l2.373,6.84-.396,6.841-3.559-3.219-2.769,1.207-2.372-.402-.396-4.829-17.793.803z" fill="none" stroke="#808080" stroke-width="1.1267"/>
  </g>
  <path d="m367.12 481.54s-1.109-12.43 1.7034-21.224c2.7946-8.7386 8.6565-17.655 13.625-17.55s7.6641 7.1424 7.6641 7.1424" fill="none" opacity=".5" stroke="#ccc" stroke-width=".73259"/>
  <path d="m358.74 450.93c0.82556-1.5021 11.789 3.6015 11.789 3.6015l-2.9479 10.318-11.847-2.4409 3.006-11.479z" fill="#666" opacity=".5"/>
  <path d="m308.61 483.17 0.25687 2.7854s8.1663 0.0936 11.983 1.4405c5.0002 1.7648 11.099 6.0611 14.745 9.7849 4.8281 4.9306 12.317 14.808 12.85 19.329-0.50118-5.3185-7.0671-14.266-11.967-19.458-3.7426-3.9662-10.125-8.0349-15.252-10.145-3.9691-1.6342-12.616-3.737-12.616-3.737z" stroke="#000" stroke-width=".48839"/>
  <path d="m265.63 481.35 0.13497 3.1885c-10.048 0.11729-17.165 3.296-23.223 7.8082s-13.578 21.746-13.578 21.746 6.3154-16.516 12.973-22.228c6.725-5.7719 23.693-10.514 23.693-10.514z" stroke="#000" stroke-width=".48839"/>
  <g transform="matrix(.52314 0 0 .49282 -326.56 177.37)" filter="url(#p)">
   <path d="m1079.4 657.33 41.42-26.478-0.531 21.074s2.483-6.035 4.779-5.944c2.834 0.112 10.089 5.944 10.089 5.944l75.406 1.621s4.714-4.44 7.434-4.323c3.975 0.172 5.842 4.323 5.842 4.323l2.124-13.509 11.683 5.403 1.063-4.323 3.717-3.242 20.179 18.372 6.903 1.081-21.771-17.832-19.648-8.104-15.399-4.323-89.212-0.54-8.497 1.08-33.454 25.938-2.127 3.782z" fill="#999"/>
   <path d="m1079.4 657.33 41.42-26.478-0.531 21.074s2.483-6.035 4.779-5.944c2.834 0.112 10.089 5.944 10.089 5.944l75.406 1.621s4.714-4.44 7.434-4.323c3.975 0.172 5.842 4.323 5.842 4.323l2.124-13.509 11.683 5.403 1.063-4.323 3.717-3.242 20.179 18.372 6.903 1.081-21.771-17.832-19.648-8.104-15.399-4.323-89.212-0.54-8.497 1.08-33.454 25.938-2.127 3.782z" fill="none" stroke="#000" stroke-width=".96187"/>
  </g>
  <path d="m308.76 472.3 0.80933 18.224-3.2362 1.9392h-38.832l-2.4274-2.7144-0.40437-15.51 3.6405-4.2653 38.024 0.38785 2.4269 1.9387z" fill="#666" stroke="#000" stroke-width=".48839"/>
  <path d="m269.93 470.75-0.40437 18.224-2.8318-3.1023v-11.632l3.2362-3.4891z" fill="#333"/>
  <path d="m305.12 473.07v14.734l2.8318-4.6532v-6.9793l-2.8318-3.1018z" fill="#333"/>
  <path d="m265.86 495.05 2.081 0.89791 38.298-0.0739 2.8448-0.74267 0.48704-5.3411-4.2092 1.8643-37.372-0.60468-2.9615-1.8599 0.8318 5.8601z" fill="#333" stroke="#1a1a1a" stroke-width=".48839"/>
  <g transform="matrix(.52314 0 0 .49282 -326.56 177.37)" filter="url(#c)">
   <path d="m1217.9 617.85s15.532 3.883 22.744 7.552 22.024 15.104 22.024 15.104" fill="none" stroke="#b3b3b3" stroke-width="2.2534"/>
  </g>
  <g transform="matrix(.52314 0 0 .49282 -326.56 177.37)" filter="url(#b)">
   <path d="m1129.2 615.23s-7.381 1.598-17.204 5.276c-9.901 3.708-20.974 12.229-20.974 12.229" fill="none" stroke="#b3b3b3" stroke-width="2.2534"/>
  </g>
  <path d="m258.48 500.9-0.27779-6.9551s-12.987 6.0838-16.956 9.5079c-3.9084 3.3723-7.6515 12.425-7.6515 12.425l1.785 8.6238" fill="none" stroke="#000" stroke-width=".97678"/>
  <path d="m315.63 501.33-1.1446-0.5002 1.7164-5.7191s8.5571 3.0673 12.221 5.8497 8.512 8.1936 11.118 11.499c2.5608 3.2482 3.4193 5.6117 2.9934 7.0527l-2.7004 6.6905-0.59847-0.95508s1.5998-4.4358 2.5147-5.9389c0.82133-1.5031-2.0633-5.2687-3.8462-7.8811s-8.2479-9.0846-11.453-11.247-9.5076-3.874-9.5076-3.874l-1.3136 5.0233z" stroke="#000" stroke-width=".48839"/>
  <g transform="matrix(.52314 0 0 .49282 -326.56 177.37)" filter="url(#a)">
   <path d="m1232.7 650.18-1.783 5.442s5.057 1.936 10.427 5.578c4.789 3.249 9.24 7.514 12.749 11.111s7.851 8.703 11.688 14.926c3.811 6.177 5.961 12.284 5.961 12.284l3.565-7.256s-1.957-4.919-5.459-10.264c-3.551-5.421-8.257-10.906-12.012-14.407s-8.363-8.395-14.064-12.191c-5.595-3.725-11.072-5.223-11.072-5.223z" fill="#4d4d4d"/>
  </g>
  <g transform="matrix(.52314 0 0 .49282 -326.56 177.37)" filter="url(#o)">
   <path d="m1078.8 725.95 33.985 1.621-0.531 5.403 7.435 4.323-6.372 3.242 12.214 3.782-6.903 3.782 9.559 4.323-11.152 2.701 14.338 7.565-11.151 1.621 21.241 5.943s34.024 3.77 45.137 2.702c16.619-1.597 36.752-8.554 46.199-14.049 9.447-5.496 11.683-12.429 11.683-12.429l-16.462 1.621 12.214-4.863-11.683-1.621 12.213-4.862-9.558-1.621 38.765-3.783s-15.912 21.761-30.269 30.26c-17.2 10.183-48.167 16.017-67.972 14.05-11.292-1.122-37.762-0.334-60.005-14.59-22.624-14.497-32.925-35.121-32.925-35.121z" fill="#ccc"/>
  </g>
  <g transform="matrix(.52314 0 0 .49282 -326.56 177.37)" filter="url(#a)">
   <path d="m1116.5 647.01-0.018 6.358s-5.057 0.104-10.426 3.747c-4.79 3.248-10.141 5.681-13.649 9.278s-8.751 8.704-12.589 14.926c-3.81 6.177-3.711 12.743-3.711 12.743l-1.766-6.341s0.157-5.834 3.659-11.18c3.551-5.42 8.257-10.906 12.013-14.407 3.755-3.501 6.563-4.731 12.264-8.527 5.596-3.725 14.223-6.597 14.223-6.597z" fill="#4d4d4d"/>
  </g>
  <path d="m415.13 294.78s-28.916-9.8588-39.668-11.228c-1.4669 0.41248-3.0028 2.0851-3.6065 3.4172-0.31754 5.25-1.3691 11.356-1.0306 16.598 0.74076 1.6179 3.4915 4.0854 4.1213 4.8813 11.091 2.1413 39.668 10.739 39.668 10.739s0.75489-4.1909 1.5454-9.2753c0.47816-3.0698-1.0301-15.132-1.0301-15.132z" fill="#ff0" stroke="#c7d700" stroke-width=".48839"/>
  <path d="m182.65 295.36s20.372-8.0837 29.054-9.3211c1.1844 0.37306 2.7753-0.60468 3.2624 0.59976 0.25633 4.7468 1.1049 11.429 0.8318 16.168-0.24795 1.7948-1.0672 3.5276-3.6783 4.5792-8.9557 1.9363-31.332 8.3818-31.332 8.3818s0.0358-3.5921 0.32853-8.2197c0.49019-7.755 1.5328-12.188 1.5328-12.188z" fill="#ff0" stroke="#c8d700" stroke-width=".48839"/>
  <path d="m183.6 297.36 26.012-8.441 2.8506 2.3636 0.71252 11.142-3.9194 4.3895-27.437 6.415 1.7813-15.869z" fill="#e6e6e6"/>
  <path d="m374.94 289.59 2.1381-3.0392 36.345 10.467 0.71252 12.83-1.4256 6.0779-36.701-10.129-2.1381-3.3763 1.0688-12.83z" fill="#e6e6e6"/>
  <g transform="matrix(.44106 0 0 .42377 -362.88 1.3928)" stroke="#000" stroke-width="1.1297">
   <path d="m1327 944.37 106.37-0.537 7.198-18.524-115.07-1.707 1.506 20.768z"/>
   <path d="m1325.3 923.99 115.09 1.391s0.863-9.917 8.37-15.995 26.932-13.196 44.641-12.517c17.669 0.678 32.76 14.373 39.061 20.167s6.975 11.126 6.975 11.126l122.76 2.782s3.593-40.758-31.389-67.455c-34.544-26.362-90.705-47.322-133.92-53.547-43.901-6.323-127.45 33.621-150.66 60.501-23.555 27.282-20.925 53.547-20.925 53.547z" fill="#540"/>
   <path d="m1661.8 931.2s11.344-0.015-35.106-0.968c-40.387-0.829-77.74-1.147-89.288-2.035 12.835 23.124 13.316 20.293 13.316 20.293s51.355 1.797 76.654 2.311 30.621-1.663 30.621-1.663l3.803-17.938z"/>
  </g>
  <g transform="matrix(.46837 0 0 .45453 -404.68 -21.416)" fill="#fff" stroke="#fff" stroke-width="1.0585">
   <path d="m1623.7 821.63-36.693 176.38 6.552 3.92 40.624-180.3h-10.483v-1e-3z" opacity=".25"/>
   <path d="m1676.1 841.22-66.834 193.36 10.484 14.372 65.523-202.51-9.173-5.226z" opacity=".25"/>
   <path d="m1639.4 825.55 30.141 1.307-61.592 207.74-15.726-31.356 47.177-177.69z" opacity=".5"/>
   <path d="m1376 813.79h13.104l22.278 167.24h-3.931l-31.451-167.24z" opacity=".5"/>
   <path d="m1324.9 826.85 9.173-2.613 38.004 199.9-5.242 2.613-41.935-199.9z" opacity=".25"/>
   <path d="m1302.6 830.77h26.21l39.313 199.9-10.483 18.292-55.04-218.19z" opacity=".25"/>
   <path d="m1415.3 809.87 14.414-3.92 3.931 145.02-6.551 7.839-11.794-148.94z" opacity=".25"/>
   <path d="m1471.7 804.64s75.386 5.272 104.84 11.759c-7.242 35.231-30.141 131.96-30.141 131.96l-76.008-33.969 1.311-109.75z" opacity=".25"/>
   <path d="m1415.3 809.87 14.414-3.92 3.931 145.02-6.551 7.839-11.794-148.94z" opacity=".25"/>
   <path d="m1431.5 808.06 14.542-3.424-1.06 145.07-6.818 7.611-6.664-149.26z" opacity=".25"/>
   <path d="m1447.4 808.45 14.59-3.212-3.186 145.04-6.929 7.51-4.475-149.34z" opacity=".25"/>
   <path d="m1623.7 821.63-36.693 176.38 6.552 3.92 40.624-180.3h-10.483v-1e-3z" opacity=".25"/>
   <path d="m1676.1 841.22-66.834 193.36 10.484 14.372 65.523-202.51-9.173-5.226z" opacity=".25"/>
   <path d="m1639.4 825.55 30.141 1.307-61.592 207.74-15.726-31.356 47.177-177.69z" opacity=".5"/>
   <path d="m1376 813.79h13.104l22.278 167.24h-3.931l-31.451-167.24z" opacity=".5"/>
   <path d="m1324.9 826.85 9.173-2.613 38.004 199.9-5.242 2.613-41.935-199.9z" opacity=".25"/>
   <path d="m1302.6 830.77h26.21l39.313 199.9-10.483 18.292-55.04-218.19z" opacity=".25"/>
   <path d="m1415.3 809.87 14.414-3.92 3.931 145.02-6.551 7.839-11.794-148.94z" opacity=".25"/>
   <path d="m1471.7 804.64s75.386 5.272 104.84 11.759c-7.242 35.231-30.141 131.96-30.141 131.96l-76.008-33.969 1.311-109.75z" opacity=".25"/>
   <path d="m1415.3 809.87 14.414-3.92 3.931 145.02-6.551 7.839-11.794-148.94z" opacity=".25"/>
   <path d="m1431.5 808.06 14.542-3.424-1.06 145.07-6.818 7.611-6.664-149.26z" opacity=".25"/>
   <path d="m1447.4 808.45 14.59-3.212-3.186 145.04-6.929 7.51-4.475-149.34z" opacity=".25"/>
  </g>
  <g transform="matrix(.44106 0 0 .42377 -575.97 169.87)">
   <path d="m2114 682.53s-46.357-31.732-84.384-41.052c-37.618-9.22-86.047-11.047-86.047-11.047l-3.501 50.278s-0.909 10.747 10.049 9.395c10.896-1.345 44.816 2.709 66.719 8.52 21.497 5.704 54.11 24.067 61.521 31.557 1.761 5.756-0.841 7.497 4.96 12.706 6.01 5.399 23.114 10.498 32.603 11.48s20.679 0.328 26.16-3.393c2.439-7.19-4.781-12.98-10.128-14.007-4.914 3.742-8.362 5.338-16.032 4.007-6.285-1.091-21.126-1.395-28.154-10.688-1.377-11.461 0.758-31.43 1.304-46.713 7.932-7.917 24.93-1.043 24.93-1.043z" fill="#343434" stroke="#000" stroke-width="1.1297"/>
   <g enable-background="new" filter="url(#n)" opacity=".5">
    <path d="m1949 636.74s67.265 8.284 88.815 15.025c21.412 6.698 46 22.711 46 22.711l-1.399 19.908s-36.129-19.209-56.763-25.957c-20.635-6.749-76.651-10.691-76.651-10.691v-20.996z" fill="#666"/>
   </g>
  </g>
  <g transform="matrix(.52314 0 0 .49282 -326.56 177.37)" filter="url(#l)">
   <path d="m1159.8 565.6s-11.361 0.945-26.272 5.889c-6.6 2.188-19.175 5.893-28.769 11.561-9.797 5.789-24.26 17.953-27.738 20.74-13.788 11.051-20.265 16.052-20.265 16.052" fill="none" stroke="#fff" stroke-width="2.2593"/>
  </g>
  <g transform="matrix(.52314 0 0 .49282 -326.56 177.37)" filter="url(#r)">
   <path d="m1169.9 292.05c-0.948 9.581 30.309 7.349 52.534 5.373 9.585 1.368 51.537 8.655 65.135 12.826s43.455 22.029 62.463 34.103c19.372 12.306 40.768 78.685 40.768 78.685s-17.164-63.992-35.416-78.977c-18.251-14.984-52.665-31.085-70.344-36.458-16.911-5.14-42.722-10.579-71.337-13.884-28.509-3.292-42.937-10.406-43.803-1.668z" fill="#e6e6e6"/>
   <path d="m1169.9 292.05c-0.948 9.581 30.309 7.349 52.534 5.373 9.585 1.368 51.537 8.655 65.135 12.826s43.455 22.029 62.463 34.103c19.372 12.306 40.768 78.685 40.768 78.685s-17.164-63.992-35.416-78.977c-18.251-14.984-52.665-31.085-70.344-36.458-16.911-5.14-42.722-10.579-71.337-13.884-28.509-3.292-42.937-10.406-43.803-1.668z" fill="none" stroke="#333" stroke-width=".96187"/>
  </g>
  <g transform="matrix(.52314 0 0 .49282 -326.56 177.37)" filter="url(#q)">
   <path d="m1126.7 298.73c5.022 8.154-42.836 9.481-63.61 17.779-7.991 5.567-43.586 28.692-53.952 38.588s-24.623 87.563-24.595 111.81c0.028 24.358 1.276 57.673 1.276 57.673s-14.847-68.72-5.019-90.413 7.828-60.559 21.328-73.381c12.914-12.265 33.72-30.069 57.919-45.992 24.109-15.863 62.072-23.497 66.653-16.06z" fill="#e6e6e6"/>
   <path d="m1126.7 298.73c5.022 8.154-42.836 9.481-63.61 17.779-7.991 5.567-43.586 28.692-53.952 38.588s-24.623 87.563-24.595 111.81c0.028 24.358 1.276 57.673 1.276 57.673s-14.847-68.72-5.019-90.413 7.828-60.559 21.328-73.381c12.914-12.265 33.72-30.069 57.919-45.992 24.109-15.863 62.072-23.497 66.653-16.06z" fill="none" stroke="#333" stroke-width=".96187"/>
  </g>
  <path d="m352.38 459.55c-3.4868-1.9777-5.6787 7.1251-5.8472 10.298s3.2194 11.248 5.593 11.256c2.6272 9e-3 -0.26785-7.8796-0.25425-11.016s3.8075-8.6667 0.5085-10.537z" fill="#808080" opacity=".5" stroke="#666" stroke-width=".48839"/>
 </g>
</svg>
